<svg xmlns="http://www.w3.org/2000/svg" xmlns:xlink="http://www.w3.org/1999/xlink" width="1080" zoomAndPan="magnify" viewBox="0 0 810 809.999993" height="1080" preserveAspectRatio="xMidYMid meet" version="1.0"><defs><g/><clipPath id="09e2e94ffe"><path d="M 8 9 L 162 9 L 162 222 L 8 222 Z M 8 9 " clip-rule="nonzero"/></clipPath><clipPath id="8568fb4d4e"><path d="M 135.507812 1.246094 L 169.871094 23.683594 L 35.335938 229.742188 L 0.96875 207.300781 Z M 135.507812 1.246094 " clip-rule="nonzero"/></clipPath><clipPath id="43a3f19a6e"><path d="M 152.691406 12.464844 C 162.179688 18.664062 164.851562 31.378906 158.652344 40.867188 L 46.554688 212.554688 C 40.359375 222.046875 27.644531 224.714844 18.152344 218.519531 C 8.664062 212.324219 5.992188 199.605469 12.191406 190.117188 L 124.289062 18.429688 C 130.484375 8.941406 143.199219 6.269531 152.691406 12.464844 Z M 152.691406 12.464844 " clip-rule="nonzero"/></clipPath><clipPath id="e8c0cf23cd"><path d="M 0 0 L 154 0 L 154 213 L 0 213 Z M 0 0 " clip-rule="nonzero"/></clipPath><clipPath id="bf73617e4f"><path d="M 127.507812 -7.753906 L 161.871094 14.683594 L 27.335938 220.742188 L -7.03125 198.300781 Z M 127.507812 -7.753906 " clip-rule="nonzero"/></clipPath><clipPath id="3f918ecb63"><path d="M 144.691406 3.464844 C 154.179688 9.664062 156.851562 22.378906 150.652344 31.867188 L 38.554688 203.554688 C 32.359375 213.046875 19.644531 215.714844 10.152344 209.519531 C 0.664062 203.324219 -2.007812 190.605469 4.191406 181.117188 L 116.289062 9.429688 C 122.484375 -0.0585938 135.199219 -2.730469 144.691406 3.464844 Z M 144.691406 3.464844 " clip-rule="nonzero"/></clipPath><clipPath id="e574bac6f7"><rect x="0" width="154" y="0" height="213"/></clipPath><clipPath id="3392763373"><path d="M 94 114 L 175 114 L 175 223 L 94 223 Z M 94 114 " clip-rule="nonzero"/></clipPath><clipPath id="3c497fafff"><path d="M 146.878906 107.339844 L 182.183594 128.210938 L 122.097656 229.851562 L 86.789062 208.980469 Z M 146.878906 107.339844 " clip-rule="nonzero"/></clipPath><clipPath id="59ae327cfc"><path d="M 164.53125 117.777344 C 169.210938 120.542969 172.601562 125.058594 173.957031 130.324219 C 175.308594 135.59375 174.515625 141.183594 171.746094 145.863281 L 132.597656 212.089844 C 129.828125 216.769531 125.316406 220.160156 120.046875 221.511719 C 114.78125 222.867188 109.191406 222.074219 104.507812 219.304688 C 99.828125 216.535156 96.4375 212.023438 95.082031 206.753906 C 93.730469 201.488281 94.523438 195.898438 97.292969 191.214844 L 136.441406 124.992188 C 139.210938 120.3125 143.722656 116.921875 148.992188 115.566406 C 154.257812 114.214844 159.847656 115.007812 164.53125 117.777344 Z M 164.53125 117.777344 " clip-rule="nonzero"/></clipPath><clipPath id="c332eaa267"><path d="M 0 0.160156 L 81 0.160156 L 81 108.878906 L 0 108.878906 Z M 0 0.160156 " clip-rule="nonzero"/></clipPath><clipPath id="9aa5cebe5b"><path d="M 52.878906 -6.660156 L 88.183594 14.210938 L 28.097656 115.851562 L -7.210938 94.980469 Z M 52.878906 -6.660156 " clip-rule="nonzero"/></clipPath><clipPath id="5a2c1f4e59"><path d="M 70.53125 3.777344 C 75.210938 6.542969 78.601562 11.058594 79.957031 16.324219 C 81.308594 21.59375 80.515625 27.183594 77.746094 31.863281 L 38.597656 98.089844 C 35.828125 102.769531 31.316406 106.160156 26.046875 107.511719 C 20.78125 108.867188 15.191406 108.074219 10.507812 105.304688 C 5.828125 102.535156 2.4375 98.023438 1.082031 92.753906 C -0.269531 87.488281 0.523438 81.898438 3.292969 77.214844 L 42.441406 10.992188 C 45.210938 6.3125 49.722656 2.921875 54.992188 1.566406 C 60.257812 0.214844 65.847656 1.007812 70.53125 3.777344 Z M 70.53125 3.777344 " clip-rule="nonzero"/></clipPath><clipPath id="0cbbb7d403"><rect x="0" width="81" y="0" height="109"/></clipPath><clipPath id="daa9e32923"><path d="M 159.269531 72.171875 L 199.550781 72.171875 L 199.550781 112.453125 L 159.269531 112.453125 Z M 159.269531 72.171875 " clip-rule="nonzero"/></clipPath><clipPath id="f2a8d52367"><path d="M 179.410156 72.171875 C 168.285156 72.171875 159.269531 81.1875 159.269531 92.3125 C 159.269531 103.433594 168.285156 112.453125 179.410156 112.453125 C 190.53125 112.453125 199.550781 103.433594 199.550781 92.3125 C 199.550781 81.1875 190.53125 72.171875 179.410156 72.171875 Z M 179.410156 72.171875 " clip-rule="nonzero"/></clipPath><clipPath id="161aa9cabb"><path d="M 0.269531 0.171875 L 40.550781 0.171875 L 40.550781 40.453125 L 0.269531 40.453125 Z M 0.269531 0.171875 " clip-rule="nonzero"/></clipPath><clipPath id="abadccd9ef"><path d="M 20.410156 0.171875 C 9.285156 0.171875 0.269531 9.1875 0.269531 20.3125 C 0.269531 31.433594 9.285156 40.453125 20.410156 40.453125 C 31.53125 40.453125 40.550781 31.433594 40.550781 20.3125 C 40.550781 9.1875 31.53125 0.171875 20.410156 0.171875 Z M 20.410156 0.171875 " clip-rule="nonzero"/></clipPath><clipPath id="012367f455"><rect x="0" width="41" y="0" height="41"/></clipPath><clipPath id="6d9e87712f"><path d="M 172.277344 167.484375 L 226.824219 167.484375 L 226.824219 222.03125 L 172.277344 222.03125 Z M 172.277344 167.484375 " clip-rule="nonzero"/></clipPath><clipPath id="7616f87bba"><path d="M 199.550781 167.484375 C 184.488281 167.484375 172.277344 179.695312 172.277344 194.757812 C 172.277344 209.820312 184.488281 222.03125 199.550781 222.03125 C 214.613281 222.03125 226.824219 209.820312 226.824219 194.757812 C 226.824219 179.695312 214.613281 167.484375 199.550781 167.484375 Z M 199.550781 167.484375 " clip-rule="nonzero"/></clipPath><clipPath id="198dc8e678"><path d="M 0.277344 0.484375 L 54.824219 0.484375 L 54.824219 55.03125 L 0.277344 55.03125 Z M 0.277344 0.484375 " clip-rule="nonzero"/></clipPath><clipPath id="20960bf096"><path d="M 27.550781 0.484375 C 12.488281 0.484375 0.277344 12.695312 0.277344 27.757812 C 0.277344 42.820312 12.488281 55.03125 27.550781 55.03125 C 42.613281 55.03125 54.824219 42.820312 54.824219 27.757812 C 54.824219 12.695312 42.613281 0.484375 27.550781 0.484375 Z M 27.550781 0.484375 " clip-rule="nonzero"/></clipPath><clipPath id="ed4f872d36"><rect x="0" width="55" y="0" height="56"/></clipPath><clipPath id="b7f84175d7"><path d="M 441.105469 153.71875 L 457.117188 153.71875 L 457.117188 161.851562 L 441.105469 161.851562 Z M 441.105469 153.71875 " clip-rule="nonzero"/></clipPath><clipPath id="6b6ff9fea5"><path d="M 445.371094 153.71875 L 457.09375 153.71875 L 452.828125 161.851562 L 441.105469 161.851562 Z M 445.371094 153.71875 " clip-rule="nonzero"/></clipPath><clipPath id="5e4ac3b42f"><path d="M 0.105469 0.71875 L 16.117188 0.71875 L 16.117188 8.851562 L 0.105469 8.851562 Z M 0.105469 0.71875 " clip-rule="nonzero"/></clipPath><clipPath id="d860d89c31"><path d="M 4.371094 0.71875 L 16.09375 0.71875 L 11.828125 8.851562 L 0.105469 8.851562 Z M 4.371094 0.71875 " clip-rule="nonzero"/></clipPath><clipPath id="7f2a7bcfc2"><rect x="0" width="17" y="0" height="9"/></clipPath><clipPath id="8cdb82e143"><path d="M 267 0.640625 L 485 0.640625 L 485 47 L 267 47 Z M 267 0.640625 " clip-rule="nonzero"/></clipPath><clipPath id="519dbde4fb"><path d="M 0.320312 10 L 30 10 L 30 37 L 0.320312 37 Z M 0.320312 10 " clip-rule="nonzero"/></clipPath><clipPath id="93d188cd48"><rect x="0" width="218" y="0" height="47"/></clipPath><clipPath id="98496620ad"><rect x="0" width="369" y="0" height="47"/></clipPath><clipPath id="39de4f89e4"><rect x="0" width="376" y="0" height="100"/></clipPath><clipPath id="d3c3556ee0"><path d="M 261 143 L 652.761719 143 L 652.761719 242.078125 L 261 242.078125 Z M 261 143 " clip-rule="nonzero"/></clipPath><clipPath id="69612298b4"><path d="M 327 21 L 391.761719 21 L 391.761719 79 L 327 79 Z M 327 21 " clip-rule="nonzero"/></clipPath><clipPath id="00f6186c39"><rect x="0" width="392" y="0" height="100"/></clipPath><clipPath id="9e6bbe19a7"><rect x="0" width="653" y="0" height="243"/></clipPath></defs><g transform="matrix(1, 0, 0, 1, 79, 314)"><g clip-path="url(#9e6bbe19a7)"><g clip-path="url(#09e2e94ffe)"><g clip-path="url(#8568fb4d4e)"><g clip-path="url(#43a3f19a6e)"><g transform="matrix(1, 0, 0, 1, 8, 9)"><g clip-path="url(#e574bac6f7)"><g clip-path="url(#e8c0cf23cd)"><g clip-path="url(#bf73617e4f)"><g clip-path="url(#3f918ecb63)"><path fill="#a6a6a6" d="M 127.507812 -7.753906 L 161.871094 14.683594 L 27.335938 220.738281 L -7.03125 198.300781 Z M 127.507812 -7.753906 " fill-opacity="1" fill-rule="nonzero"/></g></g></g></g></g></g></g></g><g clip-path="url(#3392763373)"><g clip-path="url(#3c497fafff)"><g clip-path="url(#59ae327cfc)"><g transform="matrix(1, 0, 0, 1, 94, 114)"><g clip-path="url(#0cbbb7d403)"><g clip-path="url(#c332eaa267)"><g clip-path="url(#9aa5cebe5b)"><g clip-path="url(#5a2c1f4e59)"><path fill="#a6a6a6" d="M 52.878906 -6.660156 L 88.183594 14.210938 L 28.175781 115.714844 L -7.128906 94.839844 Z M 52.878906 -6.660156 " fill-opacity="1" fill-rule="nonzero"/></g></g></g></g></g></g></g></g><g clip-path="url(#daa9e32923)"><g clip-path="url(#f2a8d52367)"><g transform="matrix(1, 0, 0, 1, 159, 72)"><g clip-path="url(#012367f455)"><g clip-path="url(#161aa9cabb)"><g clip-path="url(#abadccd9ef)"><path fill="#a6a6a6" d="M 0.269531 0.171875 L 40.550781 0.171875 L 40.550781 40.453125 L 0.269531 40.453125 Z M 0.269531 0.171875 " fill-opacity="1" fill-rule="nonzero"/></g></g></g></g></g></g><g clip-path="url(#6d9e87712f)"><g clip-path="url(#7616f87bba)"><g transform="matrix(1, 0, 0, 1, 172, 167)"><g clip-path="url(#ed4f872d36)"><g clip-path="url(#198dc8e678)"><g clip-path="url(#20960bf096)"><path fill="#a6a6a6" d="M 0.277344 0.484375 L 54.824219 0.484375 L 54.824219 55.03125 L 0.277344 55.03125 Z M 0.277344 0.484375 " fill-opacity="1" fill-rule="nonzero"/></g></g></g></g></g></g><g clip-path="url(#b7f84175d7)"><g clip-path="url(#6b6ff9fea5)"><g transform="matrix(1, 0, 0, 1, 441, 153)"><g clip-path="url(#7f2a7bcfc2)"><g clip-path="url(#5e4ac3b42f)"><g clip-path="url(#d860d89c31)"><path fill="#a6a6a6" d="M 0.105469 0.71875 L 16.082031 0.71875 L 16.082031 8.851562 L 0.105469 8.851562 Z M 0.105469 0.71875 " fill-opacity="1" fill-rule="nonzero"/></g></g></g></g></g></g><g clip-path="url(#8cdb82e143)"><g transform="matrix(1, 0, 0, 1, 267, 0.000000000000056843)"><g clip-path="url(#93d188cd48)"><g clip-path="url(#519dbde4fb)"><g fill="#a6a6a6" fill-opacity="1"><g transform="translate(1.013824, 36.890813)"><g><path d="M 20.234375 -5.578125 L 8.140625 -5.578125 L 5.84375 0 L -0.328125 0 L 11.265625 -26.03125 L 17.21875 -26.03125 L 28.859375 0 L 22.53125 0 Z M 18.328125 -10.15625 L 14.203125 -20.125 L 10.078125 -10.15625 Z M 18.328125 -10.15625 "/></g></g></g></g><g fill="#a6a6a6" fill-opacity="1"><g transform="translate(29.11536, 36.890813)"><g><path d="M 15.546875 0.453125 C 12.890625 0.453125 10.488281 -0.125 8.34375 -1.28125 C 6.195312 -2.4375 4.507812 -4.035156 3.28125 -6.078125 C 2.0625 -8.117188 1.453125 -10.429688 1.453125 -13.015625 C 1.453125 -15.597656 2.0625 -17.910156 3.28125 -19.953125 C 4.507812 -21.992188 6.195312 -23.59375 8.34375 -24.75 C 10.488281 -25.90625 12.898438 -26.484375 15.578125 -26.484375 C 17.835938 -26.484375 19.878906 -26.082031 21.703125 -25.28125 C 23.523438 -24.488281 25.054688 -23.347656 26.296875 -21.859375 L 22.421875 -18.296875 C 20.660156 -20.328125 18.476562 -21.34375 15.875 -21.34375 C 14.269531 -21.34375 12.832031 -20.988281 11.5625 -20.28125 C 10.300781 -19.570312 9.316406 -18.585938 8.609375 -17.328125 C 7.898438 -16.066406 7.546875 -14.628906 7.546875 -13.015625 C 7.546875 -11.398438 7.898438 -9.960938 8.609375 -8.703125 C 9.316406 -7.441406 10.300781 -6.457031 11.5625 -5.75 C 12.832031 -5.039062 14.269531 -4.6875 15.875 -4.6875 C 18.476562 -4.6875 20.660156 -5.710938 22.421875 -7.765625 L 26.296875 -4.203125 C 25.054688 -2.691406 23.515625 -1.535156 21.671875 -0.734375 C 19.835938 0.0546875 17.796875 0.453125 15.546875 0.453125 Z M 15.546875 0.453125 "/></g></g></g><g fill="#a6a6a6" fill-opacity="1"><g transform="translate(55.841514, 36.890813)"><g><path d="M 20.234375 -5.578125 L 8.140625 -5.578125 L 5.84375 0 L -0.328125 0 L 11.265625 -26.03125 L 17.21875 -26.03125 L 28.859375 0 L 22.53125 0 Z M 18.328125 -10.15625 L 14.203125 -20.125 L 10.078125 -10.15625 Z M 18.328125 -10.15625 "/></g></g></g><g fill="#a6a6a6" fill-opacity="1"><g transform="translate(84.314864, 36.890813)"><g><path d="M 3.09375 -26.03125 L 14.90625 -26.03125 C 17.738281 -26.03125 20.238281 -25.488281 22.40625 -24.40625 C 24.570312 -23.332031 26.253906 -21.816406 27.453125 -19.859375 C 28.660156 -17.898438 29.265625 -15.617188 29.265625 -13.015625 C 29.265625 -10.410156 28.660156 -8.128906 27.453125 -6.171875 C 26.253906 -4.210938 24.570312 -2.691406 22.40625 -1.609375 C 20.238281 -0.535156 17.738281 0 14.90625 0 L 3.09375 0 Z M 14.609375 -4.953125 C 17.210938 -4.953125 19.289062 -5.675781 20.84375 -7.125 C 22.394531 -8.570312 23.171875 -10.535156 23.171875 -13.015625 C 23.171875 -15.492188 22.394531 -17.457031 20.84375 -18.90625 C 19.289062 -20.351562 17.210938 -21.078125 14.609375 -21.078125 L 9.109375 -21.078125 L 9.109375 -4.953125 Z M 14.609375 -4.953125 "/></g></g></g><g fill="#a6a6a6" fill-opacity="1"><g transform="translate(115.018499, 36.890813)"><g><path d="M 23.25 -4.828125 L 23.25 0 L 3.09375 0 L 3.09375 -26.03125 L 22.765625 -26.03125 L 22.765625 -21.203125 L 9.078125 -21.203125 L 9.078125 -15.546875 L 21.15625 -15.546875 L 21.15625 -10.859375 L 9.078125 -10.859375 L 9.078125 -4.828125 Z M 23.25 -4.828125 "/></g></g></g><g fill="#a6a6a6" fill-opacity="1"><g transform="translate(139.960564, 36.890813)"><g><path d="M 26.78125 0 L 26.734375 -15.625 L 19.078125 -2.75 L 16.359375 -2.75 L 8.734375 -15.28125 L 8.734375 0 L 3.09375 0 L 3.09375 -26.03125 L 8.0625 -26.03125 L 17.8125 -9.859375 L 27.40625 -26.03125 L 32.359375 -26.03125 L 32.421875 0 Z M 26.78125 0 "/></g></g></g><g fill="#a6a6a6" fill-opacity="1"><g transform="translate(175.459337, 36.890813)"><g><path d="M 3.09375 -26.03125 L 9.109375 -26.03125 L 9.109375 0 L 3.09375 0 Z M 3.09375 -26.03125 "/></g></g></g><g fill="#a6a6a6" fill-opacity="1"><g transform="translate(187.651586, 36.890813)"><g><path d="M 20.234375 -5.578125 L 8.140625 -5.578125 L 5.84375 0 L -0.328125 0 L 11.265625 -26.03125 L 17.21875 -26.03125 L 28.859375 0 L 22.53125 0 Z M 18.328125 -10.15625 L 14.203125 -20.125 L 10.078125 -10.15625 Z M 18.328125 -10.15625 "/></g></g></g></g></g></g><g transform="matrix(1, 0, 0, 1, 267, 39)"><g clip-path="url(#98496620ad)"><g fill="#a6a6a6" fill-opacity="1"><g transform="translate(1.013824, 36.714883)"><g><path d="M 3.09375 -26.03125 L 9.109375 -26.03125 L 9.109375 0 L 3.09375 0 Z M 3.09375 -26.03125 "/></g></g></g><g fill="#a6a6a6" fill-opacity="1"><g transform="translate(13.206073, 36.714883)"><g><path d="M 22.203125 -13.53125 C 23.691406 -13.0625 24.859375 -12.273438 25.703125 -11.171875 C 26.546875 -10.066406 26.96875 -8.710938 26.96875 -7.109375 C 26.96875 -4.828125 26.078125 -3.070312 24.296875 -1.84375 C 22.523438 -0.613281 19.941406 0 16.546875 0 L 3.09375 0 L 3.09375 -26.03125 L 15.8125 -26.03125 C 18.976562 -26.03125 21.410156 -25.421875 23.109375 -24.203125 C 24.804688 -22.992188 25.65625 -21.347656 25.65625 -19.265625 C 25.65625 -17.992188 25.351562 -16.863281 24.75 -15.875 C 24.144531 -14.882812 23.296875 -14.101562 22.203125 -13.53125 Z M 9.078125 -21.5 L 9.078125 -15.359375 L 15.0625 -15.359375 C 16.550781 -15.359375 17.675781 -15.617188 18.4375 -16.140625 C 19.207031 -16.660156 19.59375 -17.425781 19.59375 -18.4375 C 19.59375 -19.457031 19.207031 -20.222656 18.4375 -20.734375 C 17.675781 -21.242188 16.550781 -21.5 15.0625 -21.5 Z M 16.109375 -4.53125 C 17.691406 -4.53125 18.882812 -4.789062 19.6875 -5.3125 C 20.5 -5.832031 20.90625 -6.640625 20.90625 -7.734375 C 20.90625 -9.890625 19.304688 -10.96875 16.109375 -10.96875 L 9.078125 -10.96875 L 9.078125 -4.53125 Z M 16.109375 -4.53125 "/></g></g></g><g fill="#a6a6a6" fill-opacity="1"><g transform="translate(41.642256, 36.714883)"><g><path d="M 23.25 -4.828125 L 23.25 0 L 3.09375 0 L 3.09375 -26.03125 L 22.765625 -26.03125 L 22.765625 -21.203125 L 9.078125 -21.203125 L 9.078125 -15.546875 L 21.15625 -15.546875 L 21.15625 -10.859375 L 9.078125 -10.859375 L 9.078125 -4.828125 Z M 23.25 -4.828125 "/></g></g></g><g fill="#a6a6a6" fill-opacity="1"><g transform="translate(66.584321, 36.714883)"><g><path d="M 19.671875 0 L 14.65625 -7.25 L 9.109375 -7.25 L 9.109375 0 L 3.09375 0 L 3.09375 -26.03125 L 14.359375 -26.03125 C 16.660156 -26.03125 18.660156 -25.644531 20.359375 -24.875 C 22.054688 -24.101562 23.363281 -23.007812 24.28125 -21.59375 C 25.195312 -20.1875 25.65625 -18.515625 25.65625 -16.578125 C 25.65625 -14.648438 25.191406 -12.984375 24.265625 -11.578125 C 23.335938 -10.179688 22.015625 -9.113281 20.296875 -8.375 L 26.140625 0 Z M 19.5625 -16.578125 C 19.5625 -18.046875 19.085938 -19.171875 18.140625 -19.953125 C 17.203125 -20.734375 15.828125 -21.125 14.015625 -21.125 L 9.109375 -21.125 L 9.109375 -12.046875 L 14.015625 -12.046875 C 15.828125 -12.046875 17.203125 -12.441406 18.140625 -13.234375 C 19.085938 -14.023438 19.5625 -15.140625 19.5625 -16.578125 Z M 19.5625 -16.578125 "/></g></g></g><g fill="#a6a6a6" fill-opacity="1"><g transform="translate(93.905361, 36.714883)"><g><path d="M 15.6875 0.453125 C 12.988281 0.453125 10.550781 -0.128906 8.375 -1.296875 C 6.207031 -2.460938 4.507812 -4.066406 3.28125 -6.109375 C 2.0625 -8.160156 1.453125 -10.460938 1.453125 -13.015625 C 1.453125 -15.566406 2.0625 -17.863281 3.28125 -19.90625 C 4.507812 -21.957031 6.207031 -23.566406 8.375 -24.734375 C 10.550781 -25.898438 12.988281 -26.484375 15.6875 -26.484375 C 18.394531 -26.484375 20.828125 -25.898438 22.984375 -24.734375 C 25.140625 -23.566406 26.835938 -21.957031 28.078125 -19.90625 C 29.316406 -17.863281 29.9375 -15.566406 29.9375 -13.015625 C 29.9375 -10.460938 29.316406 -8.160156 28.078125 -6.109375 C 26.835938 -4.066406 25.140625 -2.460938 22.984375 -1.296875 C 20.828125 -0.128906 18.394531 0.453125 15.6875 0.453125 Z M 15.6875 -4.6875 C 17.226562 -4.6875 18.617188 -5.039062 19.859375 -5.75 C 21.097656 -6.457031 22.070312 -7.441406 22.78125 -8.703125 C 23.488281 -9.960938 23.84375 -11.398438 23.84375 -13.015625 C 23.84375 -14.628906 23.488281 -16.066406 22.78125 -17.328125 C 22.070312 -18.585938 21.097656 -19.570312 19.859375 -20.28125 C 18.617188 -20.988281 17.226562 -21.34375 15.6875 -21.34375 C 14.15625 -21.34375 12.769531 -20.988281 11.53125 -20.28125 C 10.289062 -19.570312 9.316406 -18.585938 8.609375 -17.328125 C 7.898438 -16.066406 7.546875 -14.628906 7.546875 -13.015625 C 7.546875 -11.398438 7.898438 -9.960938 8.609375 -8.703125 C 9.316406 -7.441406 10.289062 -6.457031 11.53125 -5.75 C 12.769531 -5.039062 14.15625 -4.6875 15.6875 -4.6875 Z M 15.6875 -4.6875 "/></g></g></g><g fill="#a6a6a6" fill-opacity="1"><g transform="translate(124.906272, 36.714883)"><g><path d="M 20.234375 -5.578125 L 8.140625 -5.578125 L 5.84375 0 L -0.328125 0 L 11.265625 -26.03125 L 17.21875 -26.03125 L 28.859375 0 L 22.53125 0 Z M 18.328125 -10.15625 L 14.203125 -20.125 L 10.078125 -10.15625 Z M 18.328125 -10.15625 "/></g></g></g><g fill="#a6a6a6" fill-opacity="1"><g transform="translate(153.379622, 36.714883)"><g><path d="M 26.78125 0 L 26.734375 -15.625 L 19.078125 -2.75 L 16.359375 -2.75 L 8.734375 -15.28125 L 8.734375 0 L 3.09375 0 L 3.09375 -26.03125 L 8.0625 -26.03125 L 17.8125 -9.859375 L 27.40625 -26.03125 L 32.359375 -26.03125 L 32.421875 0 Z M 26.78125 0 "/></g></g></g><g fill="#a6a6a6" fill-opacity="1"><g transform="translate(188.878373, 36.714883)"><g><path d="M 23.25 -4.828125 L 23.25 0 L 3.09375 0 L 3.09375 -26.03125 L 22.765625 -26.03125 L 22.765625 -21.203125 L 9.078125 -21.203125 L 9.078125 -15.546875 L 21.15625 -15.546875 L 21.15625 -10.859375 L 9.078125 -10.859375 L 9.078125 -4.828125 Z M 23.25 -4.828125 "/></g></g></g><g fill="#a6a6a6" fill-opacity="1"><g transform="translate(213.820448, 36.714883)"><g><path d="M 19.671875 0 L 14.65625 -7.25 L 9.109375 -7.25 L 9.109375 0 L 3.09375 0 L 3.09375 -26.03125 L 14.359375 -26.03125 C 16.660156 -26.03125 18.660156 -25.644531 20.359375 -24.875 C 22.054688 -24.101562 23.363281 -23.007812 24.28125 -21.59375 C 25.195312 -20.1875 25.65625 -18.515625 25.65625 -16.578125 C 25.65625 -14.648438 25.191406 -12.984375 24.265625 -11.578125 C 23.335938 -10.179688 22.015625 -9.113281 20.296875 -8.375 L 26.140625 0 Z M 19.5625 -16.578125 C 19.5625 -18.046875 19.085938 -19.171875 18.140625 -19.953125 C 17.203125 -20.734375 15.828125 -21.125 14.015625 -21.125 L 9.109375 -21.125 L 9.109375 -12.046875 L 14.015625 -12.046875 C 15.828125 -12.046875 17.203125 -12.441406 18.140625 -13.234375 C 19.085938 -14.023438 19.5625 -15.140625 19.5625 -16.578125 Z M 19.5625 -16.578125 "/></g></g></g><g fill="#a6a6a6" fill-opacity="1"><g transform="translate(241.141498, 36.714883)"><g><path d="M 3.09375 -26.03125 L 9.109375 -26.03125 L 9.109375 0 L 3.09375 0 Z M 3.09375 -26.03125 "/></g></g></g><g fill="#a6a6a6" fill-opacity="1"><g transform="translate(253.333747, 36.714883)"><g><path d="M 15.546875 0.453125 C 12.890625 0.453125 10.488281 -0.125 8.34375 -1.28125 C 6.195312 -2.4375 4.507812 -4.035156 3.28125 -6.078125 C 2.0625 -8.117188 1.453125 -10.429688 1.453125 -13.015625 C 1.453125 -15.597656 2.0625 -17.910156 3.28125 -19.953125 C 4.507812 -21.992188 6.195312 -23.59375 8.34375 -24.75 C 10.488281 -25.90625 12.898438 -26.484375 15.578125 -26.484375 C 17.835938 -26.484375 19.878906 -26.082031 21.703125 -25.28125 C 23.523438 -24.488281 25.054688 -23.347656 26.296875 -21.859375 L 22.421875 -18.296875 C 20.660156 -20.328125 18.476562 -21.34375 15.875 -21.34375 C 14.269531 -21.34375 12.832031 -20.988281 11.5625 -20.28125 C 10.300781 -19.570312 9.316406 -18.585938 8.609375 -17.328125 C 7.898438 -16.066406 7.546875 -14.628906 7.546875 -13.015625 C 7.546875 -11.398438 7.898438 -9.960938 8.609375 -8.703125 C 9.316406 -7.441406 10.300781 -6.457031 11.5625 -5.75 C 12.832031 -5.039062 14.269531 -4.6875 15.875 -4.6875 C 18.476562 -4.6875 20.660156 -5.710938 22.421875 -7.765625 L 26.296875 -4.203125 C 25.054688 -2.691406 23.515625 -1.535156 21.671875 -0.734375 C 19.835938 0.0546875 17.796875 0.453125 15.546875 0.453125 Z M 15.546875 0.453125 "/></g></g></g><g fill="#a6a6a6" fill-opacity="1"><g transform="translate(280.059901, 36.714883)"><g><path d="M 20.234375 -5.578125 L 8.140625 -5.578125 L 5.84375 0 L -0.328125 0 L 11.265625 -26.03125 L 17.21875 -26.03125 L 28.859375 0 L 22.53125 0 Z M 18.328125 -10.15625 L 14.203125 -20.125 L 10.078125 -10.15625 Z M 18.328125 -10.15625 "/></g></g></g><g fill="#a6a6a6" fill-opacity="1"><g transform="translate(308.53324, 36.714883)"><g><path d="M 26.96875 -26.03125 L 26.96875 0 L 22.015625 0 L 9.03125 -15.8125 L 9.03125 0 L 3.09375 0 L 3.09375 -26.03125 L 8.0625 -26.03125 L 21.015625 -10.234375 L 21.015625 -26.03125 Z M 26.96875 -26.03125 "/></g></g></g><g fill="#a6a6a6" fill-opacity="1"><g transform="translate(338.567798, 36.714883)"><g><path d="M 20.234375 -5.578125 L 8.140625 -5.578125 L 5.84375 0 L -0.328125 0 L 11.265625 -26.03125 L 17.21875 -26.03125 L 28.859375 0 L 22.53125 0 Z M 18.328125 -10.15625 L 14.203125 -20.125 L 10.078125 -10.15625 Z M 18.328125 -10.15625 "/></g></g></g></g></g><g transform="matrix(1, 0, 0, 1, 265, 69)"><g clip-path="url(#39de4f89e4)"><g fill="#a6a6a6" fill-opacity="1"><g transform="translate(0.226666, 79.145027)"><g><path d="M 33.71875 0.96875 C 27.96875 0.96875 22.765625 -0.28125 18.109375 -2.78125 C 13.453125 -5.28125 9.789062 -8.75 7.125 -13.1875 C 4.46875 -17.625 3.140625 -22.640625 3.140625 -28.234375 C 3.140625 -33.828125 4.46875 -38.84375 7.125 -43.28125 C 9.789062 -47.71875 13.453125 -51.1875 18.109375 -53.6875 C 22.765625 -56.1875 27.992188 -57.4375 33.796875 -57.4375 C 38.691406 -57.4375 43.113281 -56.578125 47.0625 -54.859375 C 51.019531 -53.140625 54.34375 -50.664062 57.03125 -47.4375 L 48.640625 -39.6875 C 44.828125 -44.101562 40.097656 -46.3125 34.453125 -46.3125 C 30.953125 -46.3125 27.828125 -45.539062 25.078125 -44 C 22.335938 -42.46875 20.203125 -40.332031 18.671875 -37.59375 C 17.140625 -34.851562 16.375 -31.734375 16.375 -28.234375 C 16.375 -24.734375 17.140625 -21.613281 18.671875 -18.875 C 20.203125 -16.132812 22.335938 -14 25.078125 -12.46875 C 27.828125 -10.9375 30.953125 -10.171875 34.453125 -10.171875 C 40.097656 -10.171875 44.828125 -12.398438 48.640625 -16.859375 L 57.03125 -9.109375 C 54.34375 -5.828125 51.007812 -3.328125 47.03125 -1.609375 C 43.050781 0.109375 38.613281 0.96875 33.71875 0.96875 Z M 33.71875 0.96875 "/></g></g></g><g fill="#a6a6a6" fill-opacity="1"><g transform="translate(59.342517, 79.145027)"><g><path d="M 6.703125 -56.46875 L 19.765625 -56.46875 L 19.765625 0 L 6.703125 0 Z M 6.703125 -56.46875 "/></g></g></g><g fill="#a6a6a6" fill-opacity="1"><g transform="translate(85.795456, 79.145027)"><g><path d="M 50.421875 -10.484375 L 50.421875 0 L 6.703125 0 L 6.703125 -56.46875 L 49.375 -56.46875 L 49.375 -45.984375 L 19.6875 -45.984375 L 19.6875 -33.71875 L 45.90625 -33.71875 L 45.90625 -23.5625 L 19.6875 -23.5625 L 19.6875 -10.484375 Z M 50.421875 -10.484375 "/></g></g></g><g fill="#a6a6a6" fill-opacity="1"><g transform="translate(139.911061, 79.145027)"><g><path d="M 58.484375 -56.46875 L 58.484375 0 L 47.75 0 L 19.609375 -34.28125 L 19.609375 0 L 6.703125 0 L 6.703125 -56.46875 L 17.5 -56.46875 L 45.578125 -22.1875 L 45.578125 -56.46875 Z M 58.484375 -56.46875 "/></g></g></g><g fill="#a6a6a6" fill-opacity="1"><g transform="translate(205.075604, 79.145027)"><g><path d="M 33.71875 0.96875 C 27.96875 0.96875 22.765625 -0.28125 18.109375 -2.78125 C 13.453125 -5.28125 9.789062 -8.75 7.125 -13.1875 C 4.46875 -17.625 3.140625 -22.640625 3.140625 -28.234375 C 3.140625 -33.828125 4.46875 -38.84375 7.125 -43.28125 C 9.789062 -47.71875 13.453125 -51.1875 18.109375 -53.6875 C 22.765625 -56.1875 27.992188 -57.4375 33.796875 -57.4375 C 38.691406 -57.4375 43.113281 -56.578125 47.0625 -54.859375 C 51.019531 -53.140625 54.34375 -50.664062 57.03125 -47.4375 L 48.640625 -39.6875 C 44.828125 -44.101562 40.097656 -46.3125 34.453125 -46.3125 C 30.953125 -46.3125 27.828125 -45.539062 25.078125 -44 C 22.335938 -42.46875 20.203125 -40.332031 18.671875 -37.59375 C 17.140625 -34.851562 16.375 -31.734375 16.375 -28.234375 C 16.375 -24.734375 17.140625 -21.613281 18.671875 -18.875 C 20.203125 -16.132812 22.335938 -14 25.078125 -12.46875 C 27.828125 -10.9375 30.953125 -10.171875 34.453125 -10.171875 C 40.097656 -10.171875 44.828125 -12.398438 48.640625 -16.859375 L 57.03125 -9.109375 C 54.34375 -5.828125 51.007812 -3.328125 47.03125 -1.609375 C 43.050781 0.109375 38.613281 0.96875 33.71875 0.96875 Z M 33.71875 0.96875 "/></g></g></g><g fill="#a6a6a6" fill-opacity="1"><g transform="translate(264.191455, 79.145027)"><g><path d="M 6.703125 -56.46875 L 19.765625 -56.46875 L 19.765625 0 L 6.703125 0 Z M 6.703125 -56.46875 "/></g></g></g><g fill="#a6a6a6" fill-opacity="1"><g transform="translate(290.644395, 79.145027)"><g><path d="M 43.890625 -12.09375 L 17.671875 -12.09375 L 12.671875 0 L -0.71875 0 L 24.4375 -56.46875 L 37.34375 -56.46875 L 62.59375 0 L 48.890625 0 Z M 39.765625 -22.015625 L 30.8125 -43.640625 L 21.859375 -22.015625 Z M 39.765625 -22.015625 "/></g></g></g><g fill="#a6a6a6" fill-opacity="1"><g transform="translate(352.432727, 79.145027)"><g/></g></g></g></g><g clip-path="url(#d3c3556ee0)"><g transform="matrix(1, 0, 0, 1, 261, 143)"><g clip-path="url(#00f6186c39)"><g fill="#a6a6a6" fill-opacity="1"><g transform="translate(0.787506, 78.205929)"><g><path d="M 31.140625 -56.484375 C 36.148438 -56.484375 40.492188 -55.648438 44.171875 -53.984375 C 47.859375 -52.316406 50.695312 -49.945312 52.6875 -46.875 C 54.675781 -43.8125 55.671875 -40.179688 55.671875 -35.984375 C 55.671875 -31.847656 54.675781 -28.234375 52.6875 -25.140625 C 50.695312 -22.046875 47.859375 -19.675781 44.171875 -18.03125 C 40.492188 -16.394531 36.148438 -15.578125 31.140625 -15.578125 L 19.765625 -15.578125 L 19.765625 0 L 6.703125 0 L 6.703125 -56.484375 Z M 30.421875 -26.21875 C 34.347656 -26.21875 37.332031 -27.066406 39.375 -28.765625 C 41.414062 -30.460938 42.4375 -32.867188 42.4375 -35.984375 C 42.4375 -39.160156 41.414062 -41.59375 39.375 -43.28125 C 37.332031 -44.976562 34.347656 -45.828125 30.421875 -45.828125 L 19.765625 -45.828125 L 19.765625 -26.21875 Z M 30.421875 -26.21875 "/></g></g></g><g fill="#a6a6a6" fill-opacity="1"><g transform="translate(58.562505, 78.205929)"><g><path d="M 34.046875 0.96875 C 28.179688 0.96875 22.894531 -0.289062 18.1875 -2.8125 C 13.488281 -5.34375 9.804688 -8.828125 7.140625 -13.265625 C 4.472656 -17.710938 3.140625 -22.703125 3.140625 -28.234375 C 3.140625 -33.773438 4.472656 -38.765625 7.140625 -43.203125 C 9.804688 -47.640625 13.488281 -51.125 18.1875 -53.65625 C 22.894531 -56.1875 28.179688 -57.453125 34.046875 -57.453125 C 39.910156 -57.453125 45.179688 -56.1875 49.859375 -53.65625 C 54.546875 -51.125 58.234375 -47.640625 60.921875 -43.203125 C 63.609375 -38.765625 64.953125 -33.773438 64.953125 -28.234375 C 64.953125 -22.703125 63.609375 -17.710938 60.921875 -13.265625 C 58.234375 -8.828125 54.546875 -5.34375 49.859375 -2.8125 C 45.179688 -0.289062 39.910156 0.96875 34.046875 0.96875 Z M 34.046875 -10.171875 C 37.378906 -10.171875 40.390625 -10.9375 43.078125 -12.46875 C 45.773438 -14 47.890625 -16.132812 49.421875 -18.875 C 50.953125 -21.625 51.71875 -24.742188 51.71875 -28.234375 C 51.71875 -31.734375 50.953125 -34.851562 49.421875 -37.59375 C 47.890625 -40.34375 45.773438 -42.484375 43.078125 -44.015625 C 40.390625 -45.546875 37.378906 -46.3125 34.046875 -46.3125 C 30.710938 -46.3125 27.703125 -45.546875 25.015625 -44.015625 C 22.328125 -42.484375 20.210938 -40.34375 18.671875 -37.59375 C 17.140625 -34.851562 16.375 -31.734375 16.375 -28.234375 C 16.375 -24.742188 17.140625 -21.625 18.671875 -18.875 C 20.210938 -16.132812 22.328125 -14 25.015625 -12.46875 C 27.703125 -10.9375 30.710938 -10.171875 34.046875 -10.171875 Z M 34.046875 -10.171875 "/></g></g></g><g fill="#a6a6a6" fill-opacity="1"><g transform="translate(125.374941, 78.205929)"><g><path d="M 6.703125 -56.484375 L 19.765625 -56.484375 L 19.765625 -10.65625 L 48.09375 -10.65625 L 48.09375 0 L 6.703125 0 Z M 6.703125 -56.484375 "/></g></g></g><g fill="#a6a6a6" fill-opacity="1"><g transform="translate(172.821455, 78.205929)"><g><path d="M 6.703125 -56.484375 L 19.765625 -56.484375 L 19.765625 0 L 6.703125 0 Z M 6.703125 -56.484375 "/></g></g></g><g fill="#a6a6a6" fill-opacity="1"><g transform="translate(197.997137, 78.205929)"><g><path d="M 18.390625 -45.828125 L 0.328125 -45.828125 L 0.328125 -56.484375 L 49.546875 -56.484375 L 49.546875 -45.828125 L 31.46875 -45.828125 L 31.46875 0 L 18.390625 0 Z M 18.390625 -45.828125 "/></g></g></g><g fill="#a6a6a6" fill-opacity="1"><g transform="translate(246.573335, 78.205929)"><g><path d="M 6.703125 -56.484375 L 19.765625 -56.484375 L 19.765625 0 L 6.703125 0 Z M 6.703125 -56.484375 "/></g></g></g><g fill="#a6a6a6" fill-opacity="1"><g transform="translate(271.749016, 78.205929)"><g><path d="M 33.734375 0.96875 C 27.972656 0.96875 22.765625 -0.28125 18.109375 -2.78125 C 13.460938 -5.28125 9.804688 -8.75 7.140625 -13.1875 C 4.472656 -17.625 3.140625 -22.640625 3.140625 -28.234375 C 3.140625 -33.828125 4.472656 -38.84375 7.140625 -43.28125 C 9.804688 -47.726562 13.460938 -51.203125 18.109375 -53.703125 C 22.765625 -56.203125 28 -57.453125 33.8125 -57.453125 C 38.707031 -57.453125 43.128906 -56.585938 47.078125 -54.859375 C 51.035156 -53.140625 54.359375 -50.664062 57.046875 -47.4375 L 48.65625 -39.703125 C 44.832031 -44.109375 40.097656 -46.3125 34.453125 -46.3125 C 30.953125 -46.3125 27.832031 -45.546875 25.09375 -44.015625 C 22.351562 -42.484375 20.210938 -40.34375 18.671875 -37.59375 C 17.140625 -34.851562 16.375 -31.734375 16.375 -28.234375 C 16.375 -24.742188 17.140625 -21.625 18.671875 -18.875 C 20.210938 -16.132812 22.351562 -14 25.09375 -12.46875 C 27.832031 -10.9375 30.953125 -10.171875 34.453125 -10.171875 C 40.097656 -10.171875 44.832031 -12.398438 48.65625 -16.859375 L 57.046875 -9.125 C 54.359375 -5.84375 51.019531 -3.335938 47.03125 -1.609375 C 43.050781 0.109375 38.617188 0.96875 33.734375 0.96875 Z M 33.734375 0.96875 "/></g></g></g><g clip-path="url(#69612298b4)"><g fill="#a6a6a6" fill-opacity="1"><g transform="translate(328.475038, 78.205929)"><g><path d="M 43.890625 -12.109375 L 17.671875 -12.109375 L 12.671875 0 L -0.71875 0 L 24.453125 -56.484375 L 37.359375 -56.484375 L 62.609375 0 L 48.890625 0 Z M 39.78125 -22.03125 L 30.828125 -43.65625 L 21.859375 -22.03125 Z M 39.78125 -22.03125 "/></g></g></g></g></g></g></g></g></g></svg>