<svg xmlns="http://www.w3.org/2000/svg" xmlns:xlink="http://www.w3.org/1999/xlink" viewBox="79 284 574 258" preserveAspectRatio="xMidYMid meet" version="1.0"><defs><g/><clipPath id="c87964c326"><path d="M 8 9 L 162 9 L 162 223 L 8 223 Z M 8 9 " clip-rule="nonzero"/></clipPath><clipPath id="b8eb535bed"><path d="M 135.507812 1.667969 L 169.871094 24.105469 L 35.335938 230.160156 L 0.96875 207.722656 Z M 135.507812 1.667969 " clip-rule="nonzero"/></clipPath><clipPath id="57a87d3e25"><path d="M 152.691406 12.886719 C 162.179688 19.082031 164.851562 31.796875 158.652344 41.285156 L 46.554688 212.972656 C 40.359375 222.464844 27.644531 225.132812 18.152344 218.9375 C 8.664062 212.742188 5.992188 200.027344 12.191406 190.535156 L 124.289062 18.847656 C 130.484375 9.359375 143.199219 6.6875 152.691406 12.886719 Z M 152.691406 12.886719 " clip-rule="nonzero"/></clipPath><clipPath id="631c3b5bb5"><path d="M 0 0 L 154 0 L 154 214 L 0 214 Z M 0 0 " clip-rule="nonzero"/></clipPath><clipPath id="1d02f0db46"><path d="M 127.507812 -7.332031 L 161.871094 15.105469 L 27.335938 221.160156 L -7.03125 198.722656 Z M 127.507812 -7.332031 " clip-rule="nonzero"/></clipPath><clipPath id="cfe9d5b952"><path d="M 144.691406 3.886719 C 154.179688 10.082031 156.851562 22.796875 150.652344 32.285156 L 38.554688 203.972656 C 32.359375 213.464844 19.644531 216.132812 10.152344 209.9375 C 0.664062 203.742188 -2.007812 191.027344 4.191406 181.535156 L 116.289062 9.847656 C 122.484375 0.359375 135.199219 -2.3125 144.691406 3.886719 Z M 144.691406 3.886719 " clip-rule="nonzero"/></clipPath><clipPath id="dfba8bc51a"><rect x="0" width="154" y="0" height="214"/></clipPath><clipPath id="6d9f7db740"><path d="M 94 115 L 175 115 L 175 223 L 94 223 Z M 94 115 " clip-rule="nonzero"/></clipPath><clipPath id="c019ad00dd"><path d="M 146.878906 107.757812 L 182.183594 128.628906 L 122.097656 230.269531 L 86.789062 209.398438 Z M 146.878906 107.757812 " clip-rule="nonzero"/></clipPath><clipPath id="0caa0cfb29"><path d="M 164.53125 118.195312 C 169.210938 120.960938 172.601562 125.476562 173.957031 130.742188 C 175.308594 136.011719 174.515625 141.601562 171.746094 146.28125 L 132.597656 212.507812 C 129.828125 217.1875 125.316406 220.578125 120.046875 221.933594 C 114.78125 223.285156 109.191406 222.492188 104.507812 219.722656 C 99.828125 216.957031 96.4375 212.441406 95.082031 207.175781 C 93.730469 201.90625 94.523438 196.316406 97.292969 191.636719 L 136.441406 125.410156 C 139.210938 120.730469 143.722656 117.339844 148.992188 115.984375 C 154.257812 114.632812 159.847656 115.425781 164.53125 118.195312 Z M 164.53125 118.195312 " clip-rule="nonzero"/></clipPath><clipPath id="5bc08cee7c"><path d="M 0 0 L 81 0 L 81 108 L 0 108 Z M 0 0 " clip-rule="nonzero"/></clipPath><clipPath id="1d13d9ac8b"><path d="M 52.878906 -7.242188 L 88.183594 13.628906 L 28.097656 115.269531 L -7.210938 94.398438 Z M 52.878906 -7.242188 " clip-rule="nonzero"/></clipPath><clipPath id="0d5f4f80bf"><path d="M 70.53125 3.195312 C 75.210938 5.960938 78.601562 10.476562 79.957031 15.742188 C 81.308594 21.011719 80.515625 26.601562 77.746094 31.28125 L 38.597656 97.507812 C 35.828125 102.1875 31.316406 105.578125 26.046875 106.933594 C 20.78125 108.285156 15.191406 107.492188 10.507812 104.722656 C 5.828125 101.957031 2.4375 97.441406 1.082031 92.175781 C -0.269531 86.90625 0.523438 81.316406 3.292969 76.636719 L 42.441406 10.410156 C 45.210938 5.730469 49.722656 2.339844 54.992188 0.984375 C 60.257812 -0.367188 65.847656 0.425781 70.53125 3.195312 Z M 70.53125 3.195312 " clip-rule="nonzero"/></clipPath><clipPath id="142d29f1e3"><rect x="0" width="81" y="0" height="108"/></clipPath><clipPath id="d8ea81b155"><path d="M 159.269531 72.589844 L 199.550781 72.589844 L 199.550781 112.871094 L 159.269531 112.871094 Z M 159.269531 72.589844 " clip-rule="nonzero"/></clipPath><clipPath id="af3749c8cd"><path d="M 179.410156 72.589844 C 168.285156 72.589844 159.269531 81.605469 159.269531 92.730469 C 159.269531 103.851562 168.285156 112.871094 179.410156 112.871094 C 190.53125 112.871094 199.550781 103.851562 199.550781 92.730469 C 199.550781 81.605469 190.53125 72.589844 179.410156 72.589844 Z M 179.410156 72.589844 " clip-rule="nonzero"/></clipPath><clipPath id="4ea4259bc9"><path d="M 0.269531 0.589844 L 40.550781 0.589844 L 40.550781 40.871094 L 0.269531 40.871094 Z M 0.269531 0.589844 " clip-rule="nonzero"/></clipPath><clipPath id="d403bd49c5"><path d="M 20.410156 0.589844 C 9.285156 0.589844 0.269531 9.605469 0.269531 20.730469 C 0.269531 31.851562 9.285156 40.871094 20.410156 40.871094 C 31.53125 40.871094 40.550781 31.851562 40.550781 20.730469 C 40.550781 9.605469 31.53125 0.589844 20.410156 0.589844 Z M 20.410156 0.589844 " clip-rule="nonzero"/></clipPath><clipPath id="1fd48cfc12"><rect x="0" width="41" y="0" height="41"/></clipPath><clipPath id="12754367e0"><path d="M 172.277344 167.902344 L 226.824219 167.902344 L 226.824219 222.449219 L 172.277344 222.449219 Z M 172.277344 167.902344 " clip-rule="nonzero"/></clipPath><clipPath id="2fc85b4f91"><path d="M 199.550781 167.902344 C 184.488281 167.902344 172.277344 180.113281 172.277344 195.175781 C 172.277344 210.238281 184.488281 222.449219 199.550781 222.449219 C 214.613281 222.449219 226.824219 210.238281 226.824219 195.175781 C 226.824219 180.113281 214.613281 167.902344 199.550781 167.902344 Z M 199.550781 167.902344 " clip-rule="nonzero"/></clipPath><clipPath id="be8372d528"><path d="M 0.277344 0.902344 L 54.824219 0.902344 L 54.824219 55.449219 L 0.277344 55.449219 Z M 0.277344 0.902344 " clip-rule="nonzero"/></clipPath><clipPath id="4b126a5e80"><path d="M 27.550781 0.902344 C 12.488281 0.902344 0.277344 13.113281 0.277344 28.175781 C 0.277344 43.238281 12.488281 55.449219 27.550781 55.449219 C 42.613281 55.449219 54.824219 43.238281 54.824219 28.175781 C 54.824219 13.113281 42.613281 0.902344 27.550781 0.902344 Z M 27.550781 0.902344 " clip-rule="nonzero"/></clipPath><clipPath id="defe2e8547"><rect x="0" width="55" y="0" height="56"/></clipPath><clipPath id="f687bd2c48"><path d="M 441.105469 154.136719 L 457.117188 154.136719 L 457.117188 162.269531 L 441.105469 162.269531 Z M 441.105469 154.136719 " clip-rule="nonzero"/></clipPath><clipPath id="973dc2bfb2"><path d="M 445.371094 154.136719 L 457.09375 154.136719 L 452.828125 162.269531 L 441.105469 162.269531 Z M 445.371094 154.136719 " clip-rule="nonzero"/></clipPath><clipPath id="df1fd72f13"><path d="M 0.105469 0.136719 L 16.117188 0.136719 L 16.117188 8.269531 L 0.105469 8.269531 Z M 0.105469 0.136719 " clip-rule="nonzero"/></clipPath><clipPath id="5c8806a6e0"><path d="M 4.371094 0.136719 L 16.09375 0.136719 L 11.828125 8.269531 L 0.105469 8.269531 Z M 4.371094 0.136719 " clip-rule="nonzero"/></clipPath><clipPath id="4daa5a820d"><rect x="0" width="17" y="0" height="9"/></clipPath><clipPath id="621b52676b"><rect x="0" width="369" y="0" height="46"/></clipPath><clipPath id="bc878a6ac9"><rect x="0" width="376" y="0" height="99"/></clipPath><clipPath id="571d16b463"><path d="M 261 143 L 652.761719 143 L 652.761719 242.359375 L 261 242.359375 Z M 261 143 " clip-rule="nonzero"/></clipPath><clipPath id="7b7b2b0c96"><path d="M 327 22 L 391.761719 22 L 391.761719 79 L 327 79 Z M 327 22 " clip-rule="nonzero"/></clipPath><clipPath id="05a8932106"><rect x="0" width="392" y="0" height="100"/></clipPath><clipPath id="6a2f1eb6a5"><rect x="0" width="653" y="0" height="243"/></clipPath></defs><g transform="matrix(1, 0, 0, 1, 79, 307)"><g clip-path="url(#6a2f1eb6a5)"><g clip-path="url(#c87964c326)"><g clip-path="url(#b8eb535bed)"><g clip-path="url(#57a87d3e25)"><g transform="matrix(1, 0, 0, 1, 8, 9)"><g clip-path="url(#dfba8bc51a)"><g clip-path="url(#631c3b5bb5)"><g clip-path="url(#1d02f0db46)"><g clip-path="url(#cfe9d5b952)"><path fill="#ffffff" d="M 127.507812 -7.332031 L 161.871094 15.105469 L 27.335938 221.160156 L -7.03125 198.722656 Z M 127.507812 -7.332031 " fill-opacity="1" fill-rule="nonzero"/></g></g></g></g></g></g></g></g><g clip-path="url(#6d9f7db740)"><g clip-path="url(#c019ad00dd)"><g clip-path="url(#0caa0cfb29)"><g transform="matrix(1, 0, 0, 1, 94, 115)"><g clip-path="url(#142d29f1e3)"><g clip-path="url(#5bc08cee7c)"><g clip-path="url(#1d13d9ac8b)"><g clip-path="url(#0d5f4f80bf)"><path fill="#ffffff" d="M 52.878906 -7.242188 L 88.183594 13.628906 L 28.175781 115.132812 L -7.128906 94.261719 Z M 52.878906 -7.242188 " fill-opacity="1" fill-rule="nonzero"/></g></g></g></g></g></g></g></g><g clip-path="url(#d8ea81b155)"><g clip-path="url(#af3749c8cd)"><g transform="matrix(1, 0, 0, 1, 159, 72)"><g clip-path="url(#1fd48cfc12)"><g clip-path="url(#4ea4259bc9)"><g clip-path="url(#d403bd49c5)"><path fill="#ffffff" d="M 0.269531 0.589844 L 40.550781 0.589844 L 40.550781 40.871094 L 0.269531 40.871094 Z M 0.269531 0.589844 " fill-opacity="1" fill-rule="nonzero"/></g></g></g></g></g></g><g clip-path="url(#12754367e0)"><g clip-path="url(#2fc85b4f91)"><g transform="matrix(1, 0, 0, 1, 172, 167)"><g clip-path="url(#defe2e8547)"><g clip-path="url(#be8372d528)"><g clip-path="url(#4b126a5e80)"><path fill="#ffffff" d="M 0.277344 0.902344 L 54.824219 0.902344 L 54.824219 55.449219 L 0.277344 55.449219 Z M 0.277344 0.902344 " fill-opacity="1" fill-rule="nonzero"/></g></g></g></g></g></g><g clip-path="url(#f687bd2c48)"><g clip-path="url(#973dc2bfb2)"><g transform="matrix(1, 0, 0, 1, 441, 154)"><g clip-path="url(#4daa5a820d)"><g clip-path="url(#df1fd72f13)"><g clip-path="url(#5c8806a6e0)"><path fill="#ffffff" d="M 0.105469 0.136719 L 16.082031 0.136719 L 16.082031 8.269531 L 0.105469 8.269531 Z M 0.105469 0.136719 " fill-opacity="1" fill-rule="nonzero"/></g></g></g></g></g></g><g fill="#ffffff" fill-opacity="1"><g transform="translate(268.013824, 36.472476)"><g><path d="M 20.21875 -5.578125 L 8.140625 -5.578125 L 5.84375 0 L -0.328125 0 L 11.265625 -26.015625 L 17.203125 -26.015625 L 28.84375 0 L 22.53125 0 Z M 18.328125 -10.140625 L 14.203125 -20.109375 L 10.078125 -10.140625 Z M 18.328125 -10.140625 "/></g></g></g><g fill="#ffffff" fill-opacity="1"><g transform="translate(296.114058, 36.472476)"><g><path d="M 15.53125 0.453125 C 12.882812 0.453125 10.488281 -0.125 8.34375 -1.28125 C 6.195312 -2.4375 4.507812 -4.035156 3.28125 -6.078125 C 2.0625 -8.117188 1.453125 -10.429688 1.453125 -13.015625 C 1.453125 -15.585938 2.0625 -17.894531 3.28125 -19.9375 C 4.507812 -21.988281 6.195312 -23.585938 8.34375 -24.734375 C 10.488281 -25.890625 12.898438 -26.46875 15.578125 -26.46875 C 17.828125 -26.46875 19.863281 -26.070312 21.6875 -25.28125 C 23.507812 -24.488281 25.039062 -23.347656 26.28125 -21.859375 L 22.421875 -18.28125 C 20.660156 -20.320312 18.476562 -21.34375 15.875 -21.34375 C 14.257812 -21.34375 12.820312 -20.988281 11.5625 -20.28125 C 10.300781 -19.570312 9.316406 -18.582031 8.609375 -17.3125 C 7.898438 -16.050781 7.546875 -14.617188 7.546875 -13.015625 C 7.546875 -11.398438 7.898438 -9.957031 8.609375 -8.6875 C 9.316406 -7.425781 10.300781 -6.441406 11.5625 -5.734375 C 12.820312 -5.035156 14.257812 -4.6875 15.875 -4.6875 C 18.476562 -4.6875 20.660156 -5.710938 22.421875 -7.765625 L 26.28125 -4.203125 C 25.039062 -2.691406 23.503906 -1.535156 21.671875 -0.734375 C 19.835938 0.0546875 17.789062 0.453125 15.53125 0.453125 Z M 15.53125 0.453125 "/></g></g></g><g fill="#ffffff" fill-opacity="1"><g transform="translate(322.838973, 36.472476)"><g><path d="M 20.21875 -5.578125 L 8.140625 -5.578125 L 5.84375 0 L -0.328125 0 L 11.265625 -26.015625 L 17.203125 -26.015625 L 28.84375 0 L 22.53125 0 Z M 18.328125 -10.140625 L 14.203125 -20.109375 L 10.078125 -10.140625 Z M 18.328125 -10.140625 "/></g></g></g><g fill="#ffffff" fill-opacity="1"><g transform="translate(351.310997, 36.472476)"><g><path d="M 3.078125 -26.015625 L 14.90625 -26.015625 C 17.726562 -26.015625 20.222656 -25.472656 22.390625 -24.390625 C 24.566406 -23.316406 26.253906 -21.800781 27.453125 -19.84375 C 28.648438 -17.882812 29.25 -15.609375 29.25 -13.015625 C 29.25 -10.410156 28.648438 -8.128906 27.453125 -6.171875 C 26.253906 -4.210938 24.566406 -2.691406 22.390625 -1.609375 C 20.222656 -0.535156 17.726562 0 14.90625 0 L 3.078125 0 Z M 14.609375 -4.9375 C 17.210938 -4.9375 19.285156 -5.660156 20.828125 -7.109375 C 22.378906 -8.566406 23.15625 -10.535156 23.15625 -13.015625 C 23.15625 -15.492188 22.378906 -17.457031 20.828125 -18.90625 C 19.285156 -20.351562 17.210938 -21.078125 14.609375 -21.078125 L 9.109375 -21.078125 L 9.109375 -4.9375 Z M 14.609375 -4.9375 "/></g></g></g><g fill="#ffffff" fill-opacity="1"><g transform="translate(382.013198, 36.472476)"><g><path d="M 23.234375 -4.828125 L 23.234375 0 L 3.078125 0 L 3.078125 -26.015625 L 22.75 -26.015625 L 22.75 -21.1875 L 9.0625 -21.1875 L 9.0625 -15.53125 L 21.15625 -15.53125 L 21.15625 -10.859375 L 9.0625 -10.859375 L 9.0625 -4.828125 Z M 23.234375 -4.828125 "/></g></g></g><g fill="#ffffff" fill-opacity="1"><g transform="translate(406.954089, 36.472476)"><g><path d="M 26.765625 0 L 26.71875 -15.609375 L 19.0625 -2.75 L 16.359375 -2.75 L 8.734375 -15.28125 L 8.734375 0 L 3.078125 0 L 3.078125 -26.015625 L 8.0625 -26.015625 L 17.8125 -9.84375 L 27.390625 -26.015625 L 32.34375 -26.015625 L 32.40625 0 Z M 26.765625 0 "/></g></g></g><g fill="#ffffff" fill-opacity="1"><g transform="translate(442.451192, 36.472476)"><g><path d="M 3.078125 -26.015625 L 9.109375 -26.015625 L 9.109375 0 L 3.078125 0 Z M 3.078125 -26.015625 "/></g></g></g><g fill="#ffffff" fill-opacity="1"><g transform="translate(454.64287, 36.472476)"><g><path d="M 20.21875 -5.578125 L 8.140625 -5.578125 L 5.84375 0 L -0.328125 0 L 11.265625 -26.015625 L 17.203125 -26.015625 L 28.84375 0 L 22.53125 0 Z M 18.328125 -10.140625 L 14.203125 -20.109375 L 10.078125 -10.140625 Z M 18.328125 -10.140625 "/></g></g></g><g transform="matrix(1, 0, 0, 1, 267, 40)"><g clip-path="url(#621b52676b)"><g fill="#ffffff" fill-opacity="1"><g transform="translate(1.013824, 36.133663)"><g><path d="M 3.09375 -26.03125 L 9.109375 -26.03125 L 9.109375 0 L 3.09375 0 Z M 3.09375 -26.03125 "/></g></g></g><g fill="#ffffff" fill-opacity="1"><g transform="translate(13.206073, 36.133663)"><g><path d="M 22.203125 -13.53125 C 23.691406 -13.0625 24.859375 -12.273438 25.703125 -11.171875 C 26.546875 -10.066406 26.96875 -8.710938 26.96875 -7.109375 C 26.96875 -4.828125 26.078125 -3.070312 24.296875 -1.84375 C 22.523438 -0.613281 19.941406 0 16.546875 0 L 3.09375 0 L 3.09375 -26.03125 L 15.8125 -26.03125 C 18.976562 -26.03125 21.410156 -25.421875 23.109375 -24.203125 C 24.804688 -22.992188 25.65625 -21.347656 25.65625 -19.265625 C 25.65625 -17.992188 25.351562 -16.863281 24.75 -15.875 C 24.144531 -14.882812 23.296875 -14.101562 22.203125 -13.53125 Z M 9.078125 -21.5 L 9.078125 -15.359375 L 15.0625 -15.359375 C 16.550781 -15.359375 17.675781 -15.617188 18.4375 -16.140625 C 19.207031 -16.660156 19.59375 -17.425781 19.59375 -18.4375 C 19.59375 -19.457031 19.207031 -20.222656 18.4375 -20.734375 C 17.675781 -21.242188 16.550781 -21.5 15.0625 -21.5 Z M 16.109375 -4.53125 C 17.691406 -4.53125 18.882812 -4.789062 19.6875 -5.3125 C 20.5 -5.832031 20.90625 -6.640625 20.90625 -7.734375 C 20.90625 -9.890625 19.304688 -10.96875 16.109375 -10.96875 L 9.078125 -10.96875 L 9.078125 -4.53125 Z M 16.109375 -4.53125 "/></g></g></g><g fill="#ffffff" fill-opacity="1"><g transform="translate(41.642256, 36.133663)"><g><path d="M 23.25 -4.828125 L 23.25 0 L 3.09375 0 L 3.09375 -26.03125 L 22.765625 -26.03125 L 22.765625 -21.203125 L 9.078125 -21.203125 L 9.078125 -15.546875 L 21.15625 -15.546875 L 21.15625 -10.859375 L 9.078125 -10.859375 L 9.078125 -4.828125 Z M 23.25 -4.828125 "/></g></g></g><g fill="#ffffff" fill-opacity="1"><g transform="translate(66.584321, 36.133663)"><g><path d="M 19.671875 0 L 14.65625 -7.25 L 9.109375 -7.25 L 9.109375 0 L 3.09375 0 L 3.09375 -26.03125 L 14.359375 -26.03125 C 16.660156 -26.03125 18.660156 -25.644531 20.359375 -24.875 C 22.054688 -24.101562 23.363281 -23.007812 24.28125 -21.59375 C 25.195312 -20.1875 25.65625 -18.515625 25.65625 -16.578125 C 25.65625 -14.648438 25.191406 -12.984375 24.265625 -11.578125 C 23.335938 -10.179688 22.015625 -9.113281 20.296875 -8.375 L 26.140625 0 Z M 19.5625 -16.578125 C 19.5625 -18.046875 19.085938 -19.171875 18.140625 -19.953125 C 17.203125 -20.734375 15.828125 -21.125 14.015625 -21.125 L 9.109375 -21.125 L 9.109375 -12.046875 L 14.015625 -12.046875 C 15.828125 -12.046875 17.203125 -12.441406 18.140625 -13.234375 C 19.085938 -14.023438 19.5625 -15.140625 19.5625 -16.578125 Z M 19.5625 -16.578125 "/></g></g></g><g fill="#ffffff" fill-opacity="1"><g transform="translate(93.905361, 36.133663)"><g><path d="M 15.6875 0.453125 C 12.988281 0.453125 10.550781 -0.128906 8.375 -1.296875 C 6.207031 -2.460938 4.507812 -4.066406 3.28125 -6.109375 C 2.0625 -8.160156 1.453125 -10.460938 1.453125 -13.015625 C 1.453125 -15.566406 2.0625 -17.863281 3.28125 -19.90625 C 4.507812 -21.957031 6.207031 -23.566406 8.375 -24.734375 C 10.550781 -25.898438 12.988281 -26.484375 15.6875 -26.484375 C 18.394531 -26.484375 20.828125 -25.898438 22.984375 -24.734375 C 25.140625 -23.566406 26.835938 -21.957031 28.078125 -19.90625 C 29.316406 -17.863281 29.9375 -15.566406 29.9375 -13.015625 C 29.9375 -10.460938 29.316406 -8.160156 28.078125 -6.109375 C 26.835938 -4.066406 25.140625 -2.460938 22.984375 -1.296875 C 20.828125 -0.128906 18.394531 0.453125 15.6875 0.453125 Z M 15.6875 -4.6875 C 17.226562 -4.6875 18.617188 -5.039062 19.859375 -5.75 C 21.097656 -6.457031 22.070312 -7.441406 22.78125 -8.703125 C 23.488281 -9.960938 23.84375 -11.398438 23.84375 -13.015625 C 23.84375 -14.628906 23.488281 -16.066406 22.78125 -17.328125 C 22.070312 -18.585938 21.097656 -19.570312 19.859375 -20.28125 C 18.617188 -20.988281 17.226562 -21.34375 15.6875 -21.34375 C 14.15625 -21.34375 12.769531 -20.988281 11.53125 -20.28125 C 10.289062 -19.570312 9.316406 -18.585938 8.609375 -17.328125 C 7.898438 -16.066406 7.546875 -14.628906 7.546875 -13.015625 C 7.546875 -11.398438 7.898438 -9.960938 8.609375 -8.703125 C 9.316406 -7.441406 10.289062 -6.457031 11.53125 -5.75 C 12.769531 -5.039062 14.15625 -4.6875 15.6875 -4.6875 Z M 15.6875 -4.6875 "/></g></g></g><g fill="#ffffff" fill-opacity="1"><g transform="translate(124.906272, 36.133663)"><g><path d="M 20.234375 -5.578125 L 8.140625 -5.578125 L 5.84375 0 L -0.328125 0 L 11.265625 -26.03125 L 17.21875 -26.03125 L 28.859375 0 L 22.53125 0 Z M 18.328125 -10.15625 L 14.203125 -20.125 L 10.078125 -10.15625 Z M 18.328125 -10.15625 "/></g></g></g><g fill="#ffffff" fill-opacity="1"><g transform="translate(153.379622, 36.133663)"><g><path d="M 26.78125 0 L 26.734375 -15.625 L 19.078125 -2.75 L 16.359375 -2.75 L 8.734375 -15.28125 L 8.734375 0 L 3.09375 0 L 3.09375 -26.03125 L 8.0625 -26.03125 L 17.8125 -9.859375 L 27.40625 -26.03125 L 32.359375 -26.03125 L 32.421875 0 Z M 26.78125 0 "/></g></g></g><g fill="#ffffff" fill-opacity="1"><g transform="translate(188.878373, 36.133663)"><g><path d="M 23.25 -4.828125 L 23.25 0 L 3.09375 0 L 3.09375 -26.03125 L 22.765625 -26.03125 L 22.765625 -21.203125 L 9.078125 -21.203125 L 9.078125 -15.546875 L 21.15625 -15.546875 L 21.15625 -10.859375 L 9.078125 -10.859375 L 9.078125 -4.828125 Z M 23.25 -4.828125 "/></g></g></g><g fill="#ffffff" fill-opacity="1"><g transform="translate(213.820448, 36.133663)"><g><path d="M 19.671875 0 L 14.65625 -7.25 L 9.109375 -7.25 L 9.109375 0 L 3.09375 0 L 3.09375 -26.03125 L 14.359375 -26.03125 C 16.660156 -26.03125 18.660156 -25.644531 20.359375 -24.875 C 22.054688 -24.101562 23.363281 -23.007812 24.28125 -21.59375 C 25.195312 -20.1875 25.65625 -18.515625 25.65625 -16.578125 C 25.65625 -14.648438 25.191406 -12.984375 24.265625 -11.578125 C 23.335938 -10.179688 22.015625 -9.113281 20.296875 -8.375 L 26.140625 0 Z M 19.5625 -16.578125 C 19.5625 -18.046875 19.085938 -19.171875 18.140625 -19.953125 C 17.203125 -20.734375 15.828125 -21.125 14.015625 -21.125 L 9.109375 -21.125 L 9.109375 -12.046875 L 14.015625 -12.046875 C 15.828125 -12.046875 17.203125 -12.441406 18.140625 -13.234375 C 19.085938 -14.023438 19.5625 -15.140625 19.5625 -16.578125 Z M 19.5625 -16.578125 "/></g></g></g><g fill="#ffffff" fill-opacity="1"><g transform="translate(241.141498, 36.133663)"><g><path d="M 3.09375 -26.03125 L 9.109375 -26.03125 L 9.109375 0 L 3.09375 0 Z M 3.09375 -26.03125 "/></g></g></g><g fill="#ffffff" fill-opacity="1"><g transform="translate(253.333747, 36.133663)"><g><path d="M 15.546875 0.453125 C 12.890625 0.453125 10.488281 -0.125 8.34375 -1.28125 C 6.195312 -2.4375 4.507812 -4.035156 3.28125 -6.078125 C 2.0625 -8.117188 1.453125 -10.429688 1.453125 -13.015625 C 1.453125 -15.597656 2.0625 -17.910156 3.28125 -19.953125 C 4.507812 -21.992188 6.195312 -23.59375 8.34375 -24.75 C 10.488281 -25.90625 12.898438 -26.484375 15.578125 -26.484375 C 17.835938 -26.484375 19.878906 -26.082031 21.703125 -25.28125 C 23.523438 -24.488281 25.054688 -23.347656 26.296875 -21.859375 L 22.421875 -18.296875 C 20.660156 -20.328125 18.476562 -21.34375 15.875 -21.34375 C 14.269531 -21.34375 12.832031 -20.988281 11.5625 -20.28125 C 10.300781 -19.570312 9.316406 -18.585938 8.609375 -17.328125 C 7.898438 -16.066406 7.546875 -14.628906 7.546875 -13.015625 C 7.546875 -11.398438 7.898438 -9.960938 8.609375 -8.703125 C 9.316406 -7.441406 10.300781 -6.457031 11.5625 -5.75 C 12.832031 -5.039062 14.269531 -4.6875 15.875 -4.6875 C 18.476562 -4.6875 20.660156 -5.710938 22.421875 -7.765625 L 26.296875 -4.203125 C 25.054688 -2.691406 23.515625 -1.535156 21.671875 -0.734375 C 19.835938 0.0546875 17.796875 0.453125 15.546875 0.453125 Z M 15.546875 0.453125 "/></g></g></g><g fill="#ffffff" fill-opacity="1"><g transform="translate(280.059901, 36.133663)"><g><path d="M 20.234375 -5.578125 L 8.140625 -5.578125 L 5.84375 0 L -0.328125 0 L 11.265625 -26.03125 L 17.21875 -26.03125 L 28.859375 0 L 22.53125 0 Z M 18.328125 -10.15625 L 14.203125 -20.125 L 10.078125 -10.15625 Z M 18.328125 -10.15625 "/></g></g></g><g fill="#ffffff" fill-opacity="1"><g transform="translate(308.53324, 36.133663)"><g><path d="M 26.96875 -26.03125 L 26.96875 0 L 22.015625 0 L 9.03125 -15.8125 L 9.03125 0 L 3.09375 0 L 3.09375 -26.03125 L 8.0625 -26.03125 L 21.015625 -10.234375 L 21.015625 -26.03125 Z M 26.96875 -26.03125 "/></g></g></g><g fill="#ffffff" fill-opacity="1"><g transform="translate(338.567798, 36.133663)"><g><path d="M 20.234375 -5.578125 L 8.140625 -5.578125 L 5.84375 0 L -0.328125 0 L 11.265625 -26.03125 L 17.21875 -26.03125 L 28.859375 0 L 22.53125 0 Z M 18.328125 -10.15625 L 14.203125 -20.125 L 10.078125 -10.15625 Z M 18.328125 -10.15625 "/></g></g></g></g></g><g transform="matrix(1, 0, 0, 1, 265, 70)"><g clip-path="url(#bc878a6ac9)"><g fill="#ffffff" fill-opacity="1"><g transform="translate(0.226666, 78.563777)"><g><path d="M 33.71875 0.96875 C 27.96875 0.96875 22.765625 -0.28125 18.109375 -2.78125 C 13.453125 -5.28125 9.789062 -8.75 7.125 -13.1875 C 4.46875 -17.625 3.140625 -22.640625 3.140625 -28.234375 C 3.140625 -33.828125 4.46875 -38.84375 7.125 -43.28125 C 9.789062 -47.71875 13.453125 -51.1875 18.109375 -53.6875 C 22.765625 -56.1875 27.992188 -57.4375 33.796875 -57.4375 C 38.691406 -57.4375 43.113281 -56.578125 47.0625 -54.859375 C 51.019531 -53.140625 54.34375 -50.664062 57.03125 -47.4375 L 48.640625 -39.6875 C 44.828125 -44.101562 40.097656 -46.3125 34.453125 -46.3125 C 30.953125 -46.3125 27.828125 -45.539062 25.078125 -44 C 22.335938 -42.46875 20.203125 -40.332031 18.671875 -37.59375 C 17.140625 -34.851562 16.375 -31.734375 16.375 -28.234375 C 16.375 -24.734375 17.140625 -21.613281 18.671875 -18.875 C 20.203125 -16.132812 22.335938 -14 25.078125 -12.46875 C 27.828125 -10.9375 30.953125 -10.171875 34.453125 -10.171875 C 40.097656 -10.171875 44.828125 -12.398438 48.640625 -16.859375 L 57.03125 -9.109375 C 54.34375 -5.828125 51.007812 -3.328125 47.03125 -1.609375 C 43.050781 0.109375 38.613281 0.96875 33.71875 0.96875 Z M 33.71875 0.96875 "/></g></g></g><g fill="#ffffff" fill-opacity="1"><g transform="translate(59.342517, 78.563777)"><g><path d="M 6.703125 -56.46875 L 19.765625 -56.46875 L 19.765625 0 L 6.703125 0 Z M 6.703125 -56.46875 "/></g></g></g><g fill="#ffffff" fill-opacity="1"><g transform="translate(85.795456, 78.563777)"><g><path d="M 50.421875 -10.484375 L 50.421875 0 L 6.703125 0 L 6.703125 -56.46875 L 49.375 -56.46875 L 49.375 -45.984375 L 19.6875 -45.984375 L 19.6875 -33.71875 L 45.90625 -33.71875 L 45.90625 -23.5625 L 19.6875 -23.5625 L 19.6875 -10.484375 Z M 50.421875 -10.484375 "/></g></g></g><g fill="#ffffff" fill-opacity="1"><g transform="translate(139.911061, 78.563777)"><g><path d="M 58.484375 -56.46875 L 58.484375 0 L 47.75 0 L 19.609375 -34.28125 L 19.609375 0 L 6.703125 0 L 6.703125 -56.46875 L 17.5 -56.46875 L 45.578125 -22.1875 L 45.578125 -56.46875 Z M 58.484375 -56.46875 "/></g></g></g><g fill="#ffffff" fill-opacity="1"><g transform="translate(205.075604, 78.563777)"><g><path d="M 33.71875 0.96875 C 27.96875 0.96875 22.765625 -0.28125 18.109375 -2.78125 C 13.453125 -5.28125 9.789062 -8.75 7.125 -13.1875 C 4.46875 -17.625 3.140625 -22.640625 3.140625 -28.234375 C 3.140625 -33.828125 4.46875 -38.84375 7.125 -43.28125 C 9.789062 -47.71875 13.453125 -51.1875 18.109375 -53.6875 C 22.765625 -56.1875 27.992188 -57.4375 33.796875 -57.4375 C 38.691406 -57.4375 43.113281 -56.578125 47.0625 -54.859375 C 51.019531 -53.140625 54.34375 -50.664062 57.03125 -47.4375 L 48.640625 -39.6875 C 44.828125 -44.101562 40.097656 -46.3125 34.453125 -46.3125 C 30.953125 -46.3125 27.828125 -45.539062 25.078125 -44 C 22.335938 -42.46875 20.203125 -40.332031 18.671875 -37.59375 C 17.140625 -34.851562 16.375 -31.734375 16.375 -28.234375 C 16.375 -24.734375 17.140625 -21.613281 18.671875 -18.875 C 20.203125 -16.132812 22.335938 -14 25.078125 -12.46875 C 27.828125 -10.9375 30.953125 -10.171875 34.453125 -10.171875 C 40.097656 -10.171875 44.828125 -12.398438 48.640625 -16.859375 L 57.03125 -9.109375 C 54.34375 -5.828125 51.007812 -3.328125 47.03125 -1.609375 C 43.050781 0.109375 38.613281 0.96875 33.71875 0.96875 Z M 33.71875 0.96875 "/></g></g></g><g fill="#ffffff" fill-opacity="1"><g transform="translate(264.191455, 78.563777)"><g><path d="M 6.703125 -56.46875 L 19.765625 -56.46875 L 19.765625 0 L 6.703125 0 Z M 6.703125 -56.46875 "/></g></g></g><g fill="#ffffff" fill-opacity="1"><g transform="translate(290.644395, 78.563777)"><g><path d="M 43.890625 -12.09375 L 17.671875 -12.09375 L 12.671875 0 L -0.71875 0 L 24.4375 -56.46875 L 37.34375 -56.46875 L 62.59375 0 L 48.890625 0 Z M 39.765625 -22.015625 L 30.8125 -43.640625 L 21.859375 -22.015625 Z M 39.765625 -22.015625 "/></g></g></g><g fill="#ffffff" fill-opacity="1"><g transform="translate(352.432727, 78.563777)"><g/></g></g></g></g><g clip-path="url(#571d16b463)"><g transform="matrix(1, 0, 0, 1, 261, 143)"><g clip-path="url(#05a8932106)"><g fill="#ffffff" fill-opacity="1"><g transform="translate(0.787506, 78.624737)"><g><path d="M 31.140625 -56.484375 C 36.148438 -56.484375 40.492188 -55.648438 44.171875 -53.984375 C 47.859375 -52.316406 50.695312 -49.945312 52.6875 -46.875 C 54.675781 -43.8125 55.671875 -40.179688 55.671875 -35.984375 C 55.671875 -31.847656 54.675781 -28.234375 52.6875 -25.140625 C 50.695312 -22.046875 47.859375 -19.675781 44.171875 -18.03125 C 40.492188 -16.394531 36.148438 -15.578125 31.140625 -15.578125 L 19.765625 -15.578125 L 19.765625 0 L 6.703125 0 L 6.703125 -56.484375 Z M 30.421875 -26.21875 C 34.347656 -26.21875 37.332031 -27.066406 39.375 -28.765625 C 41.414062 -30.460938 42.4375 -32.867188 42.4375 -35.984375 C 42.4375 -39.160156 41.414062 -41.59375 39.375 -43.28125 C 37.332031 -44.976562 34.347656 -45.828125 30.421875 -45.828125 L 19.765625 -45.828125 L 19.765625 -26.21875 Z M 30.421875 -26.21875 "/></g></g></g><g fill="#ffffff" fill-opacity="1"><g transform="translate(58.562505, 78.624737)"><g><path d="M 34.046875 0.96875 C 28.179688 0.96875 22.894531 -0.289062 18.1875 -2.8125 C 13.488281 -5.34375 9.804688 -8.828125 7.140625 -13.265625 C 4.472656 -17.710938 3.140625 -22.703125 3.140625 -28.234375 C 3.140625 -33.773438 4.472656 -38.765625 7.140625 -43.203125 C 9.804688 -47.640625 13.488281 -51.125 18.1875 -53.65625 C 22.894531 -56.1875 28.179688 -57.453125 34.046875 -57.453125 C 39.910156 -57.453125 45.179688 -56.1875 49.859375 -53.65625 C 54.546875 -51.125 58.234375 -47.640625 60.921875 -43.203125 C 63.609375 -38.765625 64.953125 -33.773438 64.953125 -28.234375 C 64.953125 -22.703125 63.609375 -17.710938 60.921875 -13.265625 C 58.234375 -8.828125 54.546875 -5.34375 49.859375 -2.8125 C 45.179688 -0.289062 39.910156 0.96875 34.046875 0.96875 Z M 34.046875 -10.171875 C 37.378906 -10.171875 40.390625 -10.9375 43.078125 -12.46875 C 45.773438 -14 47.890625 -16.132812 49.421875 -18.875 C 50.953125 -21.625 51.71875 -24.742188 51.71875 -28.234375 C 51.71875 -31.734375 50.953125 -34.851562 49.421875 -37.59375 C 47.890625 -40.34375 45.773438 -42.484375 43.078125 -44.015625 C 40.390625 -45.546875 37.378906 -46.3125 34.046875 -46.3125 C 30.710938 -46.3125 27.703125 -45.546875 25.015625 -44.015625 C 22.328125 -42.484375 20.210938 -40.34375 18.671875 -37.59375 C 17.140625 -34.851562 16.375 -31.734375 16.375 -28.234375 C 16.375 -24.742188 17.140625 -21.625 18.671875 -18.875 C 20.210938 -16.132812 22.328125 -14 25.015625 -12.46875 C 27.703125 -10.9375 30.710938 -10.171875 34.046875 -10.171875 Z M 34.046875 -10.171875 "/></g></g></g><g fill="#ffffff" fill-opacity="1"><g transform="translate(125.374941, 78.624737)"><g><path d="M 6.703125 -56.484375 L 19.765625 -56.484375 L 19.765625 -10.65625 L 48.09375 -10.65625 L 48.09375 0 L 6.703125 0 Z M 6.703125 -56.484375 "/></g></g></g><g fill="#ffffff" fill-opacity="1"><g transform="translate(172.821455, 78.624737)"><g><path d="M 6.703125 -56.484375 L 19.765625 -56.484375 L 19.765625 0 L 6.703125 0 Z M 6.703125 -56.484375 "/></g></g></g><g fill="#ffffff" fill-opacity="1"><g transform="translate(197.997137, 78.624737)"><g><path d="M 18.390625 -45.828125 L 0.328125 -45.828125 L 0.328125 -56.484375 L 49.546875 -56.484375 L 49.546875 -45.828125 L 31.46875 -45.828125 L 31.46875 0 L 18.390625 0 Z M 18.390625 -45.828125 "/></g></g></g><g fill="#ffffff" fill-opacity="1"><g transform="translate(246.573335, 78.624737)"><g><path d="M 6.703125 -56.484375 L 19.765625 -56.484375 L 19.765625 0 L 6.703125 0 Z M 6.703125 -56.484375 "/></g></g></g><g fill="#ffffff" fill-opacity="1"><g transform="translate(271.749016, 78.624737)"><g><path d="M 33.734375 0.96875 C 27.972656 0.96875 22.765625 -0.28125 18.109375 -2.78125 C 13.460938 -5.28125 9.804688 -8.75 7.140625 -13.1875 C 4.472656 -17.625 3.140625 -22.640625 3.140625 -28.234375 C 3.140625 -33.828125 4.472656 -38.84375 7.140625 -43.28125 C 9.804688 -47.726562 13.460938 -51.203125 18.109375 -53.703125 C 22.765625 -56.203125 28 -57.453125 33.8125 -57.453125 C 38.707031 -57.453125 43.128906 -56.585938 47.078125 -54.859375 C 51.035156 -53.140625 54.359375 -50.664062 57.046875 -47.4375 L 48.65625 -39.703125 C 44.832031 -44.109375 40.097656 -46.3125 34.453125 -46.3125 C 30.953125 -46.3125 27.832031 -45.546875 25.09375 -44.015625 C 22.351562 -42.484375 20.210938 -40.34375 18.671875 -37.59375 C 17.140625 -34.851562 16.375 -31.734375 16.375 -28.234375 C 16.375 -24.742188 17.140625 -21.625 18.671875 -18.875 C 20.210938 -16.132812 22.351562 -14 25.09375 -12.46875 C 27.832031 -10.9375 30.953125 -10.171875 34.453125 -10.171875 C 40.097656 -10.171875 44.832031 -12.398438 48.65625 -16.859375 L 57.046875 -9.125 C 54.359375 -5.84375 51.019531 -3.335938 47.03125 -1.609375 C 43.050781 0.109375 38.617188 0.96875 33.734375 0.96875 Z M 33.734375 0.96875 "/></g></g></g><g clip-path="url(#7b7b2b0c96)"><g fill="#ffffff" fill-opacity="1"><g transform="translate(328.475038, 78.624737)"><g><path d="M 43.890625 -12.109375 L 17.671875 -12.109375 L 12.671875 0 L -0.71875 0 L 24.453125 -56.484375 L 37.359375 -56.484375 L 62.609375 0 L 48.890625 0 Z M 39.78125 -22.03125 L 30.828125 -43.65625 L 21.859375 -22.03125 Z M 39.78125 -22.03125 "/></g></g></g></g></g></g></g></g></g></svg>