<svg xmlns="http://www.w3.org/2000/svg" xmlns:xlink="http://www.w3.org/1999/xlink" width="1080" zoomAndPan="magnify" viewBox="0 0 810 809.999993" height="1080" preserveAspectRatio="xMidYMid meet" version="1.0"><defs><g/><clipPath id="d1c7532e8b"><path d="M 8 8 L 163 8 L 163 222 L 8 222 Z M 8 8 " clip-rule="nonzero"/></clipPath><clipPath id="956dc27133"><path d="M 135.535156 0.914062 L 169.902344 23.351562 L 35.363281 229.40625 L 1 206.96875 Z M 135.535156 0.914062 " clip-rule="nonzero"/></clipPath><clipPath id="f8bfcc8809"><path d="M 152.71875 12.132812 C 162.207031 18.328125 164.878906 31.042969 158.683594 40.53125 L 46.582031 212.21875 C 40.386719 221.710938 27.671875 224.378906 18.183594 218.183594 C 8.691406 211.988281 6.023438 199.273438 12.21875 189.78125 L 124.316406 18.09375 C 130.511719 8.605469 143.230469 5.933594 152.71875 12.132812 Z M 152.71875 12.132812 " clip-rule="nonzero"/></clipPath><clipPath id="5b8937cbfc"><path d="M 0 0 L 155 0 L 155 214 L 0 214 Z M 0 0 " clip-rule="nonzero"/></clipPath><clipPath id="88d8b3cca8"><path d="M 127.535156 -7.085938 L 161.902344 15.351562 L 27.363281 221.40625 L -7 198.96875 Z M 127.535156 -7.085938 " clip-rule="nonzero"/></clipPath><clipPath id="2972f08ad9"><path d="M 144.71875 4.132812 C 154.207031 10.328125 156.878906 23.042969 150.683594 32.53125 L 38.582031 204.21875 C 32.386719 213.710938 19.671875 216.378906 10.183594 210.183594 C 0.691406 203.988281 -1.976562 191.273438 4.21875 181.78125 L 116.316406 10.09375 C 122.511719 0.605469 135.230469 -2.066406 144.71875 4.132812 Z M 144.71875 4.132812 " clip-rule="nonzero"/></clipPath><clipPath id="428c191f35"><rect x="0" width="155" y="0" height="214"/></clipPath><clipPath id="1a8a96c6c7"><path d="M 94 114 L 175 114 L 175 222 L 94 222 Z M 94 114 " clip-rule="nonzero"/></clipPath><clipPath id="5741cb31e5"><path d="M 146.90625 107.003906 L 182.210938 127.875 L 122.125 229.515625 L 86.820312 208.644531 Z M 146.90625 107.003906 " clip-rule="nonzero"/></clipPath><clipPath id="9318a36f07"><path d="M 164.558594 117.441406 C 169.242188 120.207031 172.632812 124.722656 173.984375 129.992188 C 175.339844 135.257812 174.542969 140.847656 171.777344 145.527344 L 132.625 211.753906 C 129.859375 216.433594 125.34375 219.824219 120.078125 221.179688 C 114.808594 222.53125 109.21875 221.738281 104.539062 218.96875 C 99.855469 216.203125 96.464844 211.6875 95.113281 206.421875 C 93.757812 201.152344 94.554688 195.5625 97.320312 190.882812 L 136.472656 124.65625 C 139.238281 119.976562 143.753906 116.585938 149.019531 115.230469 C 154.289062 113.878906 159.878906 114.671875 164.558594 117.441406 Z M 164.558594 117.441406 " clip-rule="nonzero"/></clipPath><clipPath id="4103b67036"><path d="M 0 0 L 81 0 L 81 108 L 0 108 Z M 0 0 " clip-rule="nonzero"/></clipPath><clipPath id="34b62472d5"><path d="M 52.90625 -6.996094 L 88.210938 13.875 L 28.125 115.515625 L -7.179688 94.644531 Z M 52.90625 -6.996094 " clip-rule="nonzero"/></clipPath><clipPath id="4719ebadd8"><path d="M 70.558594 3.441406 C 75.242188 6.207031 78.632812 10.722656 79.984375 15.992188 C 81.339844 21.257812 80.542969 26.847656 77.777344 31.527344 L 38.625 97.753906 C 35.859375 102.433594 31.34375 105.824219 26.078125 107.179688 C 20.808594 108.53125 15.21875 107.738281 10.539062 104.96875 C 5.855469 102.203125 2.464844 97.6875 1.113281 92.421875 C -0.242188 87.152344 0.554688 81.5625 3.320312 76.882812 L 42.472656 10.65625 C 45.238281 5.976562 49.753906 2.585938 55.019531 1.230469 C 60.289062 -0.121094 65.878906 0.671875 70.558594 3.441406 Z M 70.558594 3.441406 " clip-rule="nonzero"/></clipPath><clipPath id="6371272c4d"><rect x="0" width="81" y="0" height="108"/></clipPath><clipPath id="1df6455976"><path d="M 159.296875 71.835938 L 199.578125 71.835938 L 199.578125 112.117188 L 159.296875 112.117188 Z M 159.296875 71.835938 " clip-rule="nonzero"/></clipPath><clipPath id="e4dbb8c7a1"><path d="M 179.4375 71.835938 C 168.3125 71.835938 159.296875 80.851562 159.296875 91.976562 C 159.296875 103.101562 168.3125 112.117188 179.4375 112.117188 C 190.5625 112.117188 199.578125 103.101562 199.578125 91.976562 C 199.578125 80.851562 190.5625 71.835938 179.4375 71.835938 Z M 179.4375 71.835938 " clip-rule="nonzero"/></clipPath><clipPath id="036940a832"><path d="M 0.296875 0.835938 L 40.578125 0.835938 L 40.578125 41.117188 L 0.296875 41.117188 Z M 0.296875 0.835938 " clip-rule="nonzero"/></clipPath><clipPath id="330c8ec849"><path d="M 20.4375 0.835938 C 9.3125 0.835938 0.296875 9.851562 0.296875 20.976562 C 0.296875 32.101562 9.3125 41.117188 20.4375 41.117188 C 31.5625 41.117188 40.578125 32.101562 40.578125 20.976562 C 40.578125 9.851562 31.5625 0.835938 20.4375 0.835938 Z M 20.4375 0.835938 " clip-rule="nonzero"/></clipPath><clipPath id="20bae523aa"><rect x="0" width="41" y="0" height="42"/></clipPath><clipPath id="d273bb7fc6"><path d="M 172.304688 167.148438 L 226.851562 167.148438 L 226.851562 221.695312 L 172.304688 221.695312 Z M 172.304688 167.148438 " clip-rule="nonzero"/></clipPath><clipPath id="a311d6086e"><path d="M 199.578125 167.148438 C 184.515625 167.148438 172.304688 179.359375 172.304688 194.421875 C 172.304688 209.484375 184.515625 221.695312 199.578125 221.695312 C 214.640625 221.695312 226.851562 209.484375 226.851562 194.421875 C 226.851562 179.359375 214.640625 167.148438 199.578125 167.148438 Z M 199.578125 167.148438 " clip-rule="nonzero"/></clipPath><clipPath id="e6dda8d409"><path d="M 0.304688 0.148438 L 54.851562 0.148438 L 54.851562 54.695312 L 0.304688 54.695312 Z M 0.304688 0.148438 " clip-rule="nonzero"/></clipPath><clipPath id="3954d1bd05"><path d="M 27.578125 0.148438 C 12.515625 0.148438 0.304688 12.359375 0.304688 27.421875 C 0.304688 42.484375 12.515625 54.695312 27.578125 54.695312 C 42.640625 54.695312 54.851562 42.484375 54.851562 27.421875 C 54.851562 12.359375 42.640625 0.148438 27.578125 0.148438 Z M 27.578125 0.148438 " clip-rule="nonzero"/></clipPath><clipPath id="d110d87530"><rect x="0" width="55" y="0" height="55"/></clipPath><clipPath id="e9eefb5936"><path d="M 441.132812 153.382812 L 457.144531 153.382812 L 457.144531 161.515625 L 441.132812 161.515625 Z M 441.132812 153.382812 " clip-rule="nonzero"/></clipPath><clipPath id="b06639806a"><path d="M 445.398438 153.382812 L 457.121094 153.382812 L 452.859375 161.515625 L 441.132812 161.515625 Z M 445.398438 153.382812 " clip-rule="nonzero"/></clipPath><clipPath id="bbc236a65b"><path d="M 0.132812 0.382812 L 16.144531 0.382812 L 16.144531 8.515625 L 0.132812 8.515625 Z M 0.132812 0.382812 " clip-rule="nonzero"/></clipPath><clipPath id="b16cb6c65d"><path d="M 4.398438 0.382812 L 16.121094 0.382812 L 11.859375 8.515625 L 0.132812 8.515625 Z M 4.398438 0.382812 " clip-rule="nonzero"/></clipPath><clipPath id="7152e3aa93"><rect x="0" width="17" y="0" height="9"/></clipPath><clipPath id="674f0856e9"><path d="M 267 0.398438 L 485 0.398438 L 485 46 L 267 46 Z M 267 0.398438 " clip-rule="nonzero"/></clipPath><clipPath id="2a9b070a1b"><path d="M 0.28125 10 L 30 10 L 30 37 L 0.28125 37 Z M 0.28125 10 " clip-rule="nonzero"/></clipPath><clipPath id="52b4e1c804"><rect x="0" width="218" y="0" height="46"/></clipPath><clipPath id="7d90418887"><rect x="0" width="368" y="0" height="46"/></clipPath><clipPath id="3a4744995b"><rect x="0" width="376" y="0" height="100"/></clipPath><clipPath id="5d1f73d2c0"><path d="M 261 143 L 652.960938 143 L 652.960938 241.601562 L 261 241.601562 Z M 261 143 " clip-rule="nonzero"/></clipPath><clipPath id="d686a9b054"><path d="M 327 21 L 391.960938 21 L 391.960938 78 L 327 78 Z M 327 21 " clip-rule="nonzero"/></clipPath><clipPath id="ef9babb017"><rect x="0" width="392" y="0" height="99"/></clipPath><clipPath id="0ab7cae29d"><rect x="0" width="653" y="0" height="242"/></clipPath></defs><g transform="matrix(1, 0, 0, 1, 80, 284)"><g clip-path="url(#0ab7cae29d)"><g clip-path="url(#d1c7532e8b)"><g clip-path="url(#956dc27133)"><g clip-path="url(#f8bfcc8809)"><g transform="matrix(1, 0, 0, 1, 8, 8)"><g clip-path="url(#428c191f35)"><g clip-path="url(#5b8937cbfc)"><g clip-path="url(#88d8b3cca8)"><g clip-path="url(#2972f08ad9)"><path fill="#000000" d="M 127.535156 -7.085938 L 161.902344 15.351562 L 27.363281 221.40625 L -7 198.96875 Z M 127.535156 -7.085938 " fill-opacity="1" fill-rule="nonzero"/></g></g></g></g></g></g></g></g><g clip-path="url(#1a8a96c6c7)"><g clip-path="url(#5741cb31e5)"><g clip-path="url(#9318a36f07)"><g transform="matrix(1, 0, 0, 1, 94, 114)"><g clip-path="url(#6371272c4d)"><g clip-path="url(#4103b67036)"><g clip-path="url(#34b62472d5)"><g clip-path="url(#4719ebadd8)"><path fill="#000000" d="M 52.90625 -6.996094 L 88.210938 13.875 L 28.207031 115.378906 L -7.097656 94.507812 Z M 52.90625 -6.996094 " fill-opacity="1" fill-rule="nonzero"/></g></g></g></g></g></g></g></g><g clip-path="url(#1df6455976)"><g clip-path="url(#e4dbb8c7a1)"><g transform="matrix(1, 0, 0, 1, 159, 71)"><g clip-path="url(#20bae523aa)"><g clip-path="url(#036940a832)"><g clip-path="url(#330c8ec849)"><path fill="#000000" d="M 0.296875 0.835938 L 40.578125 0.835938 L 40.578125 41.117188 L 0.296875 41.117188 Z M 0.296875 0.835938 " fill-opacity="1" fill-rule="nonzero"/></g></g></g></g></g></g><g clip-path="url(#d273bb7fc6)"><g clip-path="url(#a311d6086e)"><g transform="matrix(1, 0, 0, 1, 172, 167)"><g clip-path="url(#d110d87530)"><g clip-path="url(#e6dda8d409)"><g clip-path="url(#3954d1bd05)"><path fill="#000000" d="M 0.304688 0.148438 L 54.851562 0.148438 L 54.851562 54.695312 L 0.304688 54.695312 Z M 0.304688 0.148438 " fill-opacity="1" fill-rule="nonzero"/></g></g></g></g></g></g><g clip-path="url(#e9eefb5936)"><g clip-path="url(#b06639806a)"><g transform="matrix(1, 0, 0, 1, 441, 153)"><g clip-path="url(#7152e3aa93)"><g clip-path="url(#bbc236a65b)"><g clip-path="url(#b16cb6c65d)"><path fill="#000000" d="M 0.132812 0.382812 L 16.113281 0.382812 L 16.113281 8.515625 L 0.132812 8.515625 Z M 0.132812 0.382812 " fill-opacity="1" fill-rule="nonzero"/></g></g></g></g></g></g><g clip-path="url(#674f0856e9)"><g transform="matrix(1, 0, 0, 1, 267, 0.000000000000056843)"><g clip-path="url(#52b4e1c804)"><g clip-path="url(#2a9b070a1b)"><g fill="#000000" fill-opacity="1"><g transform="translate(1.042525, 36.555892)"><g><path d="M 20.234375 -5.578125 L 8.140625 -5.578125 L 5.84375 0 L -0.328125 0 L 11.265625 -26.03125 L 17.21875 -26.03125 L 28.859375 0 L 22.53125 0 Z M 18.328125 -10.15625 L 14.203125 -20.125 L 10.078125 -10.15625 Z M 18.328125 -10.15625 "/></g></g></g></g><g fill="#000000" fill-opacity="1"><g transform="translate(29.144061, 36.555892)"><g><path d="M 15.546875 0.453125 C 12.890625 0.453125 10.488281 -0.125 8.34375 -1.28125 C 6.195312 -2.4375 4.507812 -4.035156 3.28125 -6.078125 C 2.0625 -8.117188 1.453125 -10.429688 1.453125 -13.015625 C 1.453125 -15.597656 2.0625 -17.910156 3.28125 -19.953125 C 4.507812 -21.992188 6.195312 -23.59375 8.34375 -24.75 C 10.488281 -25.90625 12.898438 -26.484375 15.578125 -26.484375 C 17.835938 -26.484375 19.878906 -26.082031 21.703125 -25.28125 C 23.523438 -24.488281 25.054688 -23.347656 26.296875 -21.859375 L 22.421875 -18.296875 C 20.660156 -20.328125 18.476562 -21.34375 15.875 -21.34375 C 14.269531 -21.34375 12.832031 -20.988281 11.5625 -20.28125 C 10.300781 -19.570312 9.316406 -18.585938 8.609375 -17.328125 C 7.898438 -16.066406 7.546875 -14.628906 7.546875 -13.015625 C 7.546875 -11.398438 7.898438 -9.960938 8.609375 -8.703125 C 9.316406 -7.441406 10.300781 -6.457031 11.5625 -5.75 C 12.832031 -5.039062 14.269531 -4.6875 15.875 -4.6875 C 18.476562 -4.6875 20.660156 -5.710938 22.421875 -7.765625 L 26.296875 -4.203125 C 25.054688 -2.691406 23.515625 -1.535156 21.671875 -0.734375 C 19.835938 0.0546875 17.796875 0.453125 15.546875 0.453125 Z M 15.546875 0.453125 "/></g></g></g><g fill="#000000" fill-opacity="1"><g transform="translate(55.870215, 36.555892)"><g><path d="M 20.234375 -5.578125 L 8.140625 -5.578125 L 5.84375 0 L -0.328125 0 L 11.265625 -26.03125 L 17.21875 -26.03125 L 28.859375 0 L 22.53125 0 Z M 18.328125 -10.15625 L 14.203125 -20.125 L 10.078125 -10.15625 Z M 18.328125 -10.15625 "/></g></g></g><g fill="#000000" fill-opacity="1"><g transform="translate(84.343565, 36.555892)"><g><path d="M 3.09375 -26.03125 L 14.90625 -26.03125 C 17.738281 -26.03125 20.238281 -25.488281 22.40625 -24.40625 C 24.570312 -23.332031 26.253906 -21.816406 27.453125 -19.859375 C 28.660156 -17.898438 29.265625 -15.617188 29.265625 -13.015625 C 29.265625 -10.410156 28.660156 -8.128906 27.453125 -6.171875 C 26.253906 -4.210938 24.570312 -2.691406 22.40625 -1.609375 C 20.238281 -0.535156 17.738281 0 14.90625 0 L 3.09375 0 Z M 14.609375 -4.953125 C 17.210938 -4.953125 19.289062 -5.675781 20.84375 -7.125 C 22.394531 -8.570312 23.171875 -10.535156 23.171875 -13.015625 C 23.171875 -15.492188 22.394531 -17.457031 20.84375 -18.90625 C 19.289062 -20.351562 17.210938 -21.078125 14.609375 -21.078125 L 9.109375 -21.078125 L 9.109375 -4.953125 Z M 14.609375 -4.953125 "/></g></g></g><g fill="#000000" fill-opacity="1"><g transform="translate(115.0472, 36.555892)"><g><path d="M 23.25 -4.828125 L 23.25 0 L 3.09375 0 L 3.09375 -26.03125 L 22.765625 -26.03125 L 22.765625 -21.203125 L 9.078125 -21.203125 L 9.078125 -15.546875 L 21.15625 -15.546875 L 21.15625 -10.859375 L 9.078125 -10.859375 L 9.078125 -4.828125 Z M 23.25 -4.828125 "/></g></g></g><g fill="#000000" fill-opacity="1"><g transform="translate(139.989265, 36.555892)"><g><path d="M 26.78125 0 L 26.734375 -15.625 L 19.078125 -2.75 L 16.359375 -2.75 L 8.734375 -15.28125 L 8.734375 0 L 3.09375 0 L 3.09375 -26.03125 L 8.0625 -26.03125 L 17.8125 -9.859375 L 27.40625 -26.03125 L 32.359375 -26.03125 L 32.421875 0 Z M 26.78125 0 "/></g></g></g><g fill="#000000" fill-opacity="1"><g transform="translate(175.488038, 36.555892)"><g><path d="M 3.09375 -26.03125 L 9.109375 -26.03125 L 9.109375 0 L 3.09375 0 Z M 3.09375 -26.03125 "/></g></g></g><g fill="#000000" fill-opacity="1"><g transform="translate(187.680287, 36.555892)"><g><path d="M 20.234375 -5.578125 L 8.140625 -5.578125 L 5.84375 0 L -0.328125 0 L 11.265625 -26.03125 L 17.21875 -26.03125 L 28.859375 0 L 22.53125 0 Z M 18.328125 -10.15625 L 14.203125 -20.125 L 10.078125 -10.15625 Z M 18.328125 -10.15625 "/></g></g></g></g></g></g><g transform="matrix(1, 0, 0, 1, 268, 39)"><g clip-path="url(#7d90418887)"><g fill="#000000" fill-opacity="1"><g transform="translate(0.0425251, 36.379963)"><g><path d="M 3.09375 -26.03125 L 9.109375 -26.03125 L 9.109375 0 L 3.09375 0 Z M 3.09375 -26.03125 "/></g></g></g><g fill="#000000" fill-opacity="1"><g transform="translate(12.234774, 36.379963)"><g><path d="M 22.203125 -13.53125 C 23.691406 -13.0625 24.859375 -12.273438 25.703125 -11.171875 C 26.546875 -10.066406 26.96875 -8.710938 26.96875 -7.109375 C 26.96875 -4.828125 26.078125 -3.070312 24.296875 -1.84375 C 22.523438 -0.613281 19.941406 0 16.546875 0 L 3.09375 0 L 3.09375 -26.03125 L 15.8125 -26.03125 C 18.976562 -26.03125 21.410156 -25.421875 23.109375 -24.203125 C 24.804688 -22.992188 25.65625 -21.347656 25.65625 -19.265625 C 25.65625 -17.992188 25.351562 -16.863281 24.75 -15.875 C 24.144531 -14.882812 23.296875 -14.101562 22.203125 -13.53125 Z M 9.078125 -21.5 L 9.078125 -15.359375 L 15.0625 -15.359375 C 16.550781 -15.359375 17.675781 -15.617188 18.4375 -16.140625 C 19.207031 -16.660156 19.59375 -17.425781 19.59375 -18.4375 C 19.59375 -19.457031 19.207031 -20.222656 18.4375 -20.734375 C 17.675781 -21.242188 16.550781 -21.5 15.0625 -21.5 Z M 16.109375 -4.53125 C 17.691406 -4.53125 18.882812 -4.789062 19.6875 -5.3125 C 20.5 -5.832031 20.90625 -6.640625 20.90625 -7.734375 C 20.90625 -9.890625 19.304688 -10.96875 16.109375 -10.96875 L 9.078125 -10.96875 L 9.078125 -4.53125 Z M 16.109375 -4.53125 "/></g></g></g><g fill="#000000" fill-opacity="1"><g transform="translate(40.670957, 36.379963)"><g><path d="M 23.25 -4.828125 L 23.25 0 L 3.09375 0 L 3.09375 -26.03125 L 22.765625 -26.03125 L 22.765625 -21.203125 L 9.078125 -21.203125 L 9.078125 -15.546875 L 21.15625 -15.546875 L 21.15625 -10.859375 L 9.078125 -10.859375 L 9.078125 -4.828125 Z M 23.25 -4.828125 "/></g></g></g><g fill="#000000" fill-opacity="1"><g transform="translate(65.613022, 36.379963)"><g><path d="M 19.671875 0 L 14.65625 -7.25 L 9.109375 -7.25 L 9.109375 0 L 3.09375 0 L 3.09375 -26.03125 L 14.359375 -26.03125 C 16.660156 -26.03125 18.660156 -25.644531 20.359375 -24.875 C 22.054688 -24.101562 23.363281 -23.007812 24.28125 -21.59375 C 25.195312 -20.1875 25.65625 -18.515625 25.65625 -16.578125 C 25.65625 -14.648438 25.191406 -12.984375 24.265625 -11.578125 C 23.335938 -10.179688 22.015625 -9.113281 20.296875 -8.375 L 26.140625 0 Z M 19.5625 -16.578125 C 19.5625 -18.046875 19.085938 -19.171875 18.140625 -19.953125 C 17.203125 -20.734375 15.828125 -21.125 14.015625 -21.125 L 9.109375 -21.125 L 9.109375 -12.046875 L 14.015625 -12.046875 C 15.828125 -12.046875 17.203125 -12.441406 18.140625 -13.234375 C 19.085938 -14.023438 19.5625 -15.140625 19.5625 -16.578125 Z M 19.5625 -16.578125 "/></g></g></g><g fill="#000000" fill-opacity="1"><g transform="translate(92.934062, 36.379963)"><g><path d="M 15.6875 0.453125 C 12.988281 0.453125 10.550781 -0.128906 8.375 -1.296875 C 6.207031 -2.460938 4.507812 -4.066406 3.28125 -6.109375 C 2.0625 -8.160156 1.453125 -10.460938 1.453125 -13.015625 C 1.453125 -15.566406 2.0625 -17.863281 3.28125 -19.90625 C 4.507812 -21.957031 6.207031 -23.566406 8.375 -24.734375 C 10.550781 -25.898438 12.988281 -26.484375 15.6875 -26.484375 C 18.394531 -26.484375 20.828125 -25.898438 22.984375 -24.734375 C 25.140625 -23.566406 26.835938 -21.957031 28.078125 -19.90625 C 29.316406 -17.863281 29.9375 -15.566406 29.9375 -13.015625 C 29.9375 -10.460938 29.316406 -8.160156 28.078125 -6.109375 C 26.835938 -4.066406 25.140625 -2.460938 22.984375 -1.296875 C 20.828125 -0.128906 18.394531 0.453125 15.6875 0.453125 Z M 15.6875 -4.6875 C 17.226562 -4.6875 18.617188 -5.039062 19.859375 -5.75 C 21.097656 -6.457031 22.070312 -7.441406 22.78125 -8.703125 C 23.488281 -9.960938 23.84375 -11.398438 23.84375 -13.015625 C 23.84375 -14.628906 23.488281 -16.066406 22.78125 -17.328125 C 22.070312 -18.585938 21.097656 -19.570312 19.859375 -20.28125 C 18.617188 -20.988281 17.226562 -21.34375 15.6875 -21.34375 C 14.15625 -21.34375 12.769531 -20.988281 11.53125 -20.28125 C 10.289062 -19.570312 9.316406 -18.585938 8.609375 -17.328125 C 7.898438 -16.066406 7.546875 -14.628906 7.546875 -13.015625 C 7.546875 -11.398438 7.898438 -9.960938 8.609375 -8.703125 C 9.316406 -7.441406 10.289062 -6.457031 11.53125 -5.75 C 12.769531 -5.039062 14.15625 -4.6875 15.6875 -4.6875 Z M 15.6875 -4.6875 "/></g></g></g><g fill="#000000" fill-opacity="1"><g transform="translate(123.934973, 36.379963)"><g><path d="M 20.234375 -5.578125 L 8.140625 -5.578125 L 5.84375 0 L -0.328125 0 L 11.265625 -26.03125 L 17.21875 -26.03125 L 28.859375 0 L 22.53125 0 Z M 18.328125 -10.15625 L 14.203125 -20.125 L 10.078125 -10.15625 Z M 18.328125 -10.15625 "/></g></g></g><g fill="#000000" fill-opacity="1"><g transform="translate(152.408323, 36.379963)"><g><path d="M 26.78125 0 L 26.734375 -15.625 L 19.078125 -2.75 L 16.359375 -2.75 L 8.734375 -15.28125 L 8.734375 0 L 3.09375 0 L 3.09375 -26.03125 L 8.0625 -26.03125 L 17.8125 -9.859375 L 27.40625 -26.03125 L 32.359375 -26.03125 L 32.421875 0 Z M 26.78125 0 "/></g></g></g><g fill="#000000" fill-opacity="1"><g transform="translate(187.907074, 36.379963)"><g><path d="M 23.25 -4.828125 L 23.25 0 L 3.09375 0 L 3.09375 -26.03125 L 22.765625 -26.03125 L 22.765625 -21.203125 L 9.078125 -21.203125 L 9.078125 -15.546875 L 21.15625 -15.546875 L 21.15625 -10.859375 L 9.078125 -10.859375 L 9.078125 -4.828125 Z M 23.25 -4.828125 "/></g></g></g><g fill="#000000" fill-opacity="1"><g transform="translate(212.849149, 36.379963)"><g><path d="M 19.671875 0 L 14.65625 -7.25 L 9.109375 -7.25 L 9.109375 0 L 3.09375 0 L 3.09375 -26.03125 L 14.359375 -26.03125 C 16.660156 -26.03125 18.660156 -25.644531 20.359375 -24.875 C 22.054688 -24.101562 23.363281 -23.007812 24.28125 -21.59375 C 25.195312 -20.1875 25.65625 -18.515625 25.65625 -16.578125 C 25.65625 -14.648438 25.191406 -12.984375 24.265625 -11.578125 C 23.335938 -10.179688 22.015625 -9.113281 20.296875 -8.375 L 26.140625 0 Z M 19.5625 -16.578125 C 19.5625 -18.046875 19.085938 -19.171875 18.140625 -19.953125 C 17.203125 -20.734375 15.828125 -21.125 14.015625 -21.125 L 9.109375 -21.125 L 9.109375 -12.046875 L 14.015625 -12.046875 C 15.828125 -12.046875 17.203125 -12.441406 18.140625 -13.234375 C 19.085938 -14.023438 19.5625 -15.140625 19.5625 -16.578125 Z M 19.5625 -16.578125 "/></g></g></g><g fill="#000000" fill-opacity="1"><g transform="translate(240.170199, 36.379963)"><g><path d="M 3.09375 -26.03125 L 9.109375 -26.03125 L 9.109375 0 L 3.09375 0 Z M 3.09375 -26.03125 "/></g></g></g><g fill="#000000" fill-opacity="1"><g transform="translate(252.362448, 36.379963)"><g><path d="M 15.546875 0.453125 C 12.890625 0.453125 10.488281 -0.125 8.34375 -1.28125 C 6.195312 -2.4375 4.507812 -4.035156 3.28125 -6.078125 C 2.0625 -8.117188 1.453125 -10.429688 1.453125 -13.015625 C 1.453125 -15.597656 2.0625 -17.910156 3.28125 -19.953125 C 4.507812 -21.992188 6.195312 -23.59375 8.34375 -24.75 C 10.488281 -25.90625 12.898438 -26.484375 15.578125 -26.484375 C 17.835938 -26.484375 19.878906 -26.082031 21.703125 -25.28125 C 23.523438 -24.488281 25.054688 -23.347656 26.296875 -21.859375 L 22.421875 -18.296875 C 20.660156 -20.328125 18.476562 -21.34375 15.875 -21.34375 C 14.269531 -21.34375 12.832031 -20.988281 11.5625 -20.28125 C 10.300781 -19.570312 9.316406 -18.585938 8.609375 -17.328125 C 7.898438 -16.066406 7.546875 -14.628906 7.546875 -13.015625 C 7.546875 -11.398438 7.898438 -9.960938 8.609375 -8.703125 C 9.316406 -7.441406 10.300781 -6.457031 11.5625 -5.75 C 12.832031 -5.039062 14.269531 -4.6875 15.875 -4.6875 C 18.476562 -4.6875 20.660156 -5.710938 22.421875 -7.765625 L 26.296875 -4.203125 C 25.054688 -2.691406 23.515625 -1.535156 21.671875 -0.734375 C 19.835938 0.0546875 17.796875 0.453125 15.546875 0.453125 Z M 15.546875 0.453125 "/></g></g></g><g fill="#000000" fill-opacity="1"><g transform="translate(279.088602, 36.379963)"><g><path d="M 20.234375 -5.578125 L 8.140625 -5.578125 L 5.84375 0 L -0.328125 0 L 11.265625 -26.03125 L 17.21875 -26.03125 L 28.859375 0 L 22.53125 0 Z M 18.328125 -10.15625 L 14.203125 -20.125 L 10.078125 -10.15625 Z M 18.328125 -10.15625 "/></g></g></g><g fill="#000000" fill-opacity="1"><g transform="translate(307.561941, 36.379963)"><g><path d="M 26.96875 -26.03125 L 26.96875 0 L 22.015625 0 L 9.03125 -15.8125 L 9.03125 0 L 3.09375 0 L 3.09375 -26.03125 L 8.0625 -26.03125 L 21.015625 -10.234375 L 21.015625 -26.03125 Z M 26.96875 -26.03125 "/></g></g></g><g fill="#000000" fill-opacity="1"><g transform="translate(337.5965, 36.379963)"><g><path d="M 20.234375 -5.578125 L 8.140625 -5.578125 L 5.84375 0 L -0.328125 0 L 11.265625 -26.03125 L 17.21875 -26.03125 L 28.859375 0 L 22.53125 0 Z M 18.328125 -10.15625 L 14.203125 -20.125 L 10.078125 -10.15625 Z M 18.328125 -10.15625 "/></g></g></g></g></g><g transform="matrix(1, 0, 0, 1, 265, 69)"><g clip-path="url(#3a4744995b)"><g fill="#000000" fill-opacity="1"><g transform="translate(0.255367, 78.810106)"><g><path d="M 33.71875 0.96875 C 27.96875 0.96875 22.765625 -0.28125 18.109375 -2.78125 C 13.453125 -5.28125 9.789062 -8.75 7.125 -13.1875 C 4.46875 -17.625 3.140625 -22.640625 3.140625 -28.234375 C 3.140625 -33.828125 4.46875 -38.84375 7.125 -43.28125 C 9.789062 -47.71875 13.453125 -51.1875 18.109375 -53.6875 C 22.765625 -56.1875 27.992188 -57.4375 33.796875 -57.4375 C 38.691406 -57.4375 43.113281 -56.578125 47.0625 -54.859375 C 51.019531 -53.140625 54.34375 -50.664062 57.03125 -47.4375 L 48.640625 -39.6875 C 44.828125 -44.101562 40.097656 -46.3125 34.453125 -46.3125 C 30.953125 -46.3125 27.828125 -45.539062 25.078125 -44 C 22.335938 -42.46875 20.203125 -40.332031 18.671875 -37.59375 C 17.140625 -34.851562 16.375 -31.734375 16.375 -28.234375 C 16.375 -24.734375 17.140625 -21.613281 18.671875 -18.875 C 20.203125 -16.132812 22.335938 -14 25.078125 -12.46875 C 27.828125 -10.9375 30.953125 -10.171875 34.453125 -10.171875 C 40.097656 -10.171875 44.828125 -12.398438 48.640625 -16.859375 L 57.03125 -9.109375 C 54.34375 -5.828125 51.007812 -3.328125 47.03125 -1.609375 C 43.050781 0.109375 38.613281 0.96875 33.71875 0.96875 Z M 33.71875 0.96875 "/></g></g></g><g fill="#000000" fill-opacity="1"><g transform="translate(59.371218, 78.810106)"><g><path d="M 6.703125 -56.46875 L 19.765625 -56.46875 L 19.765625 0 L 6.703125 0 Z M 6.703125 -56.46875 "/></g></g></g><g fill="#000000" fill-opacity="1"><g transform="translate(85.824158, 78.810106)"><g><path d="M 50.421875 -10.484375 L 50.421875 0 L 6.703125 0 L 6.703125 -56.46875 L 49.375 -56.46875 L 49.375 -45.984375 L 19.6875 -45.984375 L 19.6875 -33.71875 L 45.90625 -33.71875 L 45.90625 -23.5625 L 19.6875 -23.5625 L 19.6875 -10.484375 Z M 50.421875 -10.484375 "/></g></g></g><g fill="#000000" fill-opacity="1"><g transform="translate(139.939762, 78.810106)"><g><path d="M 58.484375 -56.46875 L 58.484375 0 L 47.75 0 L 19.609375 -34.28125 L 19.609375 0 L 6.703125 0 L 6.703125 -56.46875 L 17.5 -56.46875 L 45.578125 -22.1875 L 45.578125 -56.46875 Z M 58.484375 -56.46875 "/></g></g></g><g fill="#000000" fill-opacity="1"><g transform="translate(205.104305, 78.810106)"><g><path d="M 33.71875 0.96875 C 27.96875 0.96875 22.765625 -0.28125 18.109375 -2.78125 C 13.453125 -5.28125 9.789062 -8.75 7.125 -13.1875 C 4.46875 -17.625 3.140625 -22.640625 3.140625 -28.234375 C 3.140625 -33.828125 4.46875 -38.84375 7.125 -43.28125 C 9.789062 -47.71875 13.453125 -51.1875 18.109375 -53.6875 C 22.765625 -56.1875 27.992188 -57.4375 33.796875 -57.4375 C 38.691406 -57.4375 43.113281 -56.578125 47.0625 -54.859375 C 51.019531 -53.140625 54.34375 -50.664062 57.03125 -47.4375 L 48.640625 -39.6875 C 44.828125 -44.101562 40.097656 -46.3125 34.453125 -46.3125 C 30.953125 -46.3125 27.828125 -45.539062 25.078125 -44 C 22.335938 -42.46875 20.203125 -40.332031 18.671875 -37.59375 C 17.140625 -34.851562 16.375 -31.734375 16.375 -28.234375 C 16.375 -24.734375 17.140625 -21.613281 18.671875 -18.875 C 20.203125 -16.132812 22.335938 -14 25.078125 -12.46875 C 27.828125 -10.9375 30.953125 -10.171875 34.453125 -10.171875 C 40.097656 -10.171875 44.828125 -12.398438 48.640625 -16.859375 L 57.03125 -9.109375 C 54.34375 -5.828125 51.007812 -3.328125 47.03125 -1.609375 C 43.050781 0.109375 38.613281 0.96875 33.71875 0.96875 Z M 33.71875 0.96875 "/></g></g></g><g fill="#000000" fill-opacity="1"><g transform="translate(264.220156, 78.810106)"><g><path d="M 6.703125 -56.46875 L 19.765625 -56.46875 L 19.765625 0 L 6.703125 0 Z M 6.703125 -56.46875 "/></g></g></g><g fill="#000000" fill-opacity="1"><g transform="translate(290.673096, 78.810106)"><g><path d="M 43.890625 -12.09375 L 17.671875 -12.09375 L 12.671875 0 L -0.71875 0 L 24.4375 -56.46875 L 37.34375 -56.46875 L 62.59375 0 L 48.890625 0 Z M 39.765625 -22.015625 L 30.8125 -43.640625 L 21.859375 -22.015625 Z M 39.765625 -22.015625 "/></g></g></g><g fill="#000000" fill-opacity="1"><g transform="translate(352.461428, 78.810106)"><g/></g></g></g></g><g clip-path="url(#5d1f73d2c0)"><g transform="matrix(1, 0, 0, 1, 261, 143)"><g clip-path="url(#ef9babb017)"><g fill="#000000" fill-opacity="1"><g transform="translate(0.816207, 77.871008)"><g><path d="M 31.140625 -56.484375 C 36.148438 -56.484375 40.492188 -55.648438 44.171875 -53.984375 C 47.859375 -52.316406 50.695312 -49.945312 52.6875 -46.875 C 54.675781 -43.8125 55.671875 -40.179688 55.671875 -35.984375 C 55.671875 -31.847656 54.675781 -28.234375 52.6875 -25.140625 C 50.695312 -22.046875 47.859375 -19.675781 44.171875 -18.03125 C 40.492188 -16.394531 36.148438 -15.578125 31.140625 -15.578125 L 19.765625 -15.578125 L 19.765625 0 L 6.703125 0 L 6.703125 -56.484375 Z M 30.421875 -26.21875 C 34.347656 -26.21875 37.332031 -27.066406 39.375 -28.765625 C 41.414062 -30.460938 42.4375 -32.867188 42.4375 -35.984375 C 42.4375 -39.160156 41.414062 -41.59375 39.375 -43.28125 C 37.332031 -44.976562 34.347656 -45.828125 30.421875 -45.828125 L 19.765625 -45.828125 L 19.765625 -26.21875 Z M 30.421875 -26.21875 "/></g></g></g><g fill="#000000" fill-opacity="1"><g transform="translate(58.591206, 77.871008)"><g><path d="M 34.046875 0.96875 C 28.179688 0.96875 22.894531 -0.289062 18.1875 -2.8125 C 13.488281 -5.34375 9.804688 -8.828125 7.140625 -13.265625 C 4.472656 -17.710938 3.140625 -22.703125 3.140625 -28.234375 C 3.140625 -33.773438 4.472656 -38.765625 7.140625 -43.203125 C 9.804688 -47.640625 13.488281 -51.125 18.1875 -53.65625 C 22.894531 -56.1875 28.179688 -57.453125 34.046875 -57.453125 C 39.910156 -57.453125 45.179688 -56.1875 49.859375 -53.65625 C 54.546875 -51.125 58.234375 -47.640625 60.921875 -43.203125 C 63.609375 -38.765625 64.953125 -33.773438 64.953125 -28.234375 C 64.953125 -22.703125 63.609375 -17.710938 60.921875 -13.265625 C 58.234375 -8.828125 54.546875 -5.34375 49.859375 -2.8125 C 45.179688 -0.289062 39.910156 0.96875 34.046875 0.96875 Z M 34.046875 -10.171875 C 37.378906 -10.171875 40.390625 -10.9375 43.078125 -12.46875 C 45.773438 -14 47.890625 -16.132812 49.421875 -18.875 C 50.953125 -21.625 51.71875 -24.742188 51.71875 -28.234375 C 51.71875 -31.734375 50.953125 -34.851562 49.421875 -37.59375 C 47.890625 -40.34375 45.773438 -42.484375 43.078125 -44.015625 C 40.390625 -45.546875 37.378906 -46.3125 34.046875 -46.3125 C 30.710938 -46.3125 27.703125 -45.546875 25.015625 -44.015625 C 22.328125 -42.484375 20.210938 -40.34375 18.671875 -37.59375 C 17.140625 -34.851562 16.375 -31.734375 16.375 -28.234375 C 16.375 -24.742188 17.140625 -21.625 18.671875 -18.875 C 20.210938 -16.132812 22.328125 -14 25.015625 -12.46875 C 27.703125 -10.9375 30.710938 -10.171875 34.046875 -10.171875 Z M 34.046875 -10.171875 "/></g></g></g><g fill="#000000" fill-opacity="1"><g transform="translate(125.403642, 77.871008)"><g><path d="M 6.703125 -56.484375 L 19.765625 -56.484375 L 19.765625 -10.65625 L 48.09375 -10.65625 L 48.09375 0 L 6.703125 0 Z M 6.703125 -56.484375 "/></g></g></g><g fill="#000000" fill-opacity="1"><g transform="translate(172.850156, 77.871008)"><g><path d="M 6.703125 -56.484375 L 19.765625 -56.484375 L 19.765625 0 L 6.703125 0 Z M 6.703125 -56.484375 "/></g></g></g><g fill="#000000" fill-opacity="1"><g transform="translate(198.025838, 77.871008)"><g><path d="M 18.390625 -45.828125 L 0.328125 -45.828125 L 0.328125 -56.484375 L 49.546875 -56.484375 L 49.546875 -45.828125 L 31.46875 -45.828125 L 31.46875 0 L 18.390625 0 Z M 18.390625 -45.828125 "/></g></g></g><g fill="#000000" fill-opacity="1"><g transform="translate(246.602036, 77.871008)"><g><path d="M 6.703125 -56.484375 L 19.765625 -56.484375 L 19.765625 0 L 6.703125 0 Z M 6.703125 -56.484375 "/></g></g></g><g fill="#000000" fill-opacity="1"><g transform="translate(271.777718, 77.871008)"><g><path d="M 33.734375 0.96875 C 27.972656 0.96875 22.765625 -0.28125 18.109375 -2.78125 C 13.460938 -5.28125 9.804688 -8.75 7.140625 -13.1875 C 4.472656 -17.625 3.140625 -22.640625 3.140625 -28.234375 C 3.140625 -33.828125 4.472656 -38.84375 7.140625 -43.28125 C 9.804688 -47.726562 13.460938 -51.203125 18.109375 -53.703125 C 22.765625 -56.203125 28 -57.453125 33.8125 -57.453125 C 38.707031 -57.453125 43.128906 -56.585938 47.078125 -54.859375 C 51.035156 -53.140625 54.359375 -50.664062 57.046875 -47.4375 L 48.65625 -39.703125 C 44.832031 -44.109375 40.097656 -46.3125 34.453125 -46.3125 C 30.953125 -46.3125 27.832031 -45.546875 25.09375 -44.015625 C 22.351562 -42.484375 20.210938 -40.34375 18.671875 -37.59375 C 17.140625 -34.851562 16.375 -31.734375 16.375 -28.234375 C 16.375 -24.742188 17.140625 -21.625 18.671875 -18.875 C 20.210938 -16.132812 22.351562 -14 25.09375 -12.46875 C 27.832031 -10.9375 30.953125 -10.171875 34.453125 -10.171875 C 40.097656 -10.171875 44.832031 -12.398438 48.65625 -16.859375 L 57.046875 -9.125 C 54.359375 -5.84375 51.019531 -3.335938 47.03125 -1.609375 C 43.050781 0.109375 38.617188 0.96875 33.734375 0.96875 Z M 33.734375 0.96875 "/></g></g></g><g clip-path="url(#d686a9b054)"><g fill="#000000" fill-opacity="1"><g transform="translate(328.50374, 77.871008)"><g><path d="M 43.890625 -12.109375 L 17.671875 -12.109375 L 12.671875 0 L -0.71875 0 L 24.453125 -56.484375 L 37.359375 -56.484375 L 62.609375 0 L 48.890625 0 Z M 39.78125 -22.03125 L 30.828125 -43.65625 L 21.859375 -22.03125 Z M 39.78125 -22.03125 "/></g></g></g></g></g></g></g></g></g></svg>